<svg width="116" height="101" viewBox="0 0 116 101" fill="none" xmlns="http://www.w3.org/2000/svg">
<g clip-path="url(#clip0_6647_2410)">
<path d="M20.3517 16.0907C20.5472 15.8967 20.7427 15.7027 20.9205 15.491C21.2761 15.0853 21.6315 14.7149 22.0404 14.3623C22.1649 14.2565 22.2892 14.1505 22.4136 14.0801C22.4492 14.0448 22.4492 13.9743 22.4848 13.939C22.3249 14.0096 22.2182 14.133 22.0406 14.2036C22.005 14.2036 21.9694 14.1683 22.005 14.133C22.1294 14.0448 22.2537 13.9566 22.3605 13.8683H22.3428C22.3072 13.8683 22.3072 13.833 22.3072 13.7977C21.8629 13.7271 21.543 14.027 21.2407 14.2916C21.1695 14.3269 21.0985 14.2563 21.0808 14.2563C20.583 14.415 20.2099 14.856 19.7122 15.05V14.9793C19.5167 15.05 19.3212 15.1733 19.1078 15.2086C18.8057 15.2793 18.539 15.2439 18.2723 15.2439C17.8635 15.2793 17.4548 15.3675 17.0459 15.4557C17.0341 15.4557 17.0222 15.4615 17.0103 15.4732C16.7969 15.5261 16.5837 15.6143 16.3882 15.7201L16.317 15.7907C16.2458 15.8614 16.1748 15.9494 16.0859 15.9847C15.8726 16.0905 15.7127 16.2669 15.5349 16.4256C15.5172 16.4431 15.4993 16.4431 15.4816 16.4431C15.3038 16.6195 15.126 16.7959 14.9484 16.9546C14.9307 16.9722 14.8772 16.9722 14.8418 16.9722C14.8418 16.9546 14.8595 16.9546 14.8595 16.9369C14.8951 16.884 14.9128 16.8486 14.9484 16.7958L15.055 16.6371C15.1083 16.5665 15.1439 16.496 15.1972 16.4431C15.2149 16.4256 15.2149 16.4078 15.1972 16.4078C15.1795 16.3902 15.1616 16.3902 15.1439 16.3902C15.3038 16.2316 15.5172 16.0905 15.7127 15.967C15.695 15.967 15.6594 15.9494 15.6771 15.9316C15.6948 15.8963 15.7127 15.8788 15.7304 15.8434C15.7304 15.8317 15.7363 15.82 15.7481 15.8081C15.7481 15.7906 15.7304 15.7906 15.7304 15.7728L15.5705 15.8786C15.4816 15.9492 15.4283 16.0903 15.3038 16.0903H15.2505C15.2328 16.0903 15.2149 16.0903 15.2149 16.0727V16.0552C15.2149 16.0376 15.2326 16.0376 15.2326 16.0198C15.2326 16.0021 15.2503 16.0023 15.2503 15.9845C15.2503 15.9845 15.2503 15.967 15.268 15.967C15.268 15.9494 15.2857 15.9316 15.2857 15.9316C15.2857 15.9141 15.3034 15.9141 15.3034 15.8963C15.3211 15.8788 15.339 15.8434 15.339 15.8257C15.339 15.8079 15.3567 15.8081 15.3567 15.7904C15.3744 15.7728 15.3744 15.7551 15.3923 15.7375C15.41 15.7022 15.3923 15.6846 15.3746 15.6846C15.4279 15.5964 15.5168 15.5435 15.6057 15.4906H15.588C15.7125 15.42 15.8547 15.3495 15.979 15.2789L16.0323 15.226C15.8368 15.2966 15.6767 15.3847 15.4991 15.4906C15.4991 15.4906 15.4635 15.5082 15.4458 15.5259C15.4458 15.5259 15.4102 15.5435 15.3569 15.4906V15.4731C15.3925 15.4024 15.4991 15.3673 15.5524 15.3144C15.588 15.3144 15.6236 15.3144 15.6236 15.3497C16.7078 14.5207 18.1831 14.7147 19.4274 14.2914C19.534 14.2208 19.6229 14.1503 19.7295 14.0975C19.8894 14.0268 20.0316 13.8682 20.2273 13.7624C20.4939 13.5684 20.6894 13.3215 20.796 13.004C20.796 12.9687 20.7604 12.9334 20.7604 12.9334C20.3162 13.392 19.8184 13.7624 19.2852 14.0268C18.5742 14.3972 17.81 14.3266 17.0634 14.4325C17.099 14.3619 17.17 14.3619 17.2233 14.3619C17.2233 14.2561 17.2945 14.2208 17.3655 14.1679H17.4721C17.5077 14.1679 17.5077 14.0973 17.5433 14.0973C17.6145 14.0973 17.7211 14.062 17.6855 14.062C17.5789 13.9209 17.3834 14.1677 17.2233 14.062C17.2945 13.9913 17.2589 13.9033 17.3299 13.868H17.4721C17.4721 13.7973 17.5433 13.7269 17.5433 13.7269C18.0411 13.4271 18.5209 13.1978 18.9829 12.9332C18.8763 12.9332 18.823 13.039 18.7162 12.9685C18.7874 12.9685 18.7162 12.8628 18.7874 12.8628C19.1607 12.757 19.4628 12.563 19.8361 12.4219C19.6939 12.4219 19.605 12.5277 19.4628 12.4219C19.534 12.3866 19.5694 12.3162 19.6583 12.3162V12.2104C19.6583 12.1751 19.6939 12.1751 19.7295 12.1751C19.6939 12.1751 19.6583 12.1398 19.6583 12.1398C19.6939 12.0691 19.8005 12.1044 19.8538 12.034C19.8182 12.034 19.7472 12.034 19.7472 11.9987C19.8538 11.8576 20.0139 11.84 20.1915 11.8047C20.1559 11.734 20.0493 11.8047 20.0493 11.734C20.0493 11.6987 20.0849 11.6987 20.1205 11.6987H20.0493C19.9781 11.6634 20.0137 11.593 20.0137 11.5576C20.2092 11.3283 20.2092 11.0286 20.3158 10.764C20.2802 10.764 20.2446 10.764 20.2446 10.7287C19.9069 11.099 19.3737 11.2226 18.876 11.3637H18.6449C18.485 11.4343 18.236 11.4343 18.0761 11.3283C17.9339 11.2577 17.8806 11.1697 17.7384 11.0637C17.4717 10.9051 17.2052 10.764 16.903 10.658C16.0675 10.3934 15.1966 10.2523 14.3256 10.2876C14.6989 10.0937 15.1077 10.0759 15.4987 9.95256C16.0675 9.7939 16.6007 9.58217 17.205 9.61749C17.0984 9.58217 16.974 9.61749 16.8674 9.61749C16.4052 9.58217 15.9253 9.72327 15.4277 9.81147C15.09 9.88211 14.7878 10.0054 14.4501 10.0761C14.2546 10.1467 14.148 10.3407 13.9169 10.3054V10.1996C14.2546 9.7939 14.6635 9.40595 15.1966 9.37063C15.801 9.26486 16.3698 9.37063 16.9741 9.44127C17.4184 9.47658 17.8096 9.58236 18.2539 9.67056C18.4138 9.67056 18.4494 9.93518 18.5916 9.97031C18.7871 10.041 19.0004 9.97031 19.1959 10.1114C19.1959 10.0408 19.1603 9.97031 19.1959 9.91743C19.3381 9.77634 19.498 9.95275 19.6402 9.88211C19.9069 9.72345 19.4091 9.42352 19.2669 9.17665C19.2669 9.14133 19.3025 9.10601 19.3025 9.10601C19.5692 9.33531 19.7647 9.59993 20.1024 9.77615C20.2623 9.84679 20.6712 9.93481 20.6002 9.74083C20.4403 9.37045 20.1024 9.0707 19.818 8.73563V8.59454C19.7468 8.59454 19.7468 8.55922 19.7114 8.5239V8.38281C19.5692 8.31217 19.6048 8.18883 19.5515 8.08306C19.4449 7.9244 19.5159 7.67735 19.4449 7.48337C19.3739 7.2894 19.3383 7.11299 19.3027 6.91901C19.1961 6.35464 19.0716 5.86073 19.0006 5.31412C18.9294 4.67912 19.3739 4.18539 19.676 3.62102C19.9071 3.21532 20.1738 2.82736 20.6181 2.56275C20.7247 2.15704 20.9913 1.82197 21.258 1.50447C21.5247 1.18697 21.969 0.975428 22.289 0.834336C22.7512 0.622608 23.1777 0.499268 23.1777 0.499268H0V18.1359H16.4769C17.1169 17.6773 17.7567 17.4657 18.6454 17.0247C19.072 16.8483 20.0318 16.4074 20.3517 16.0899M15.1972 13.6914C15.126 13.6914 15.0017 13.7267 15.0373 13.6561C15.0729 13.4974 15.304 13.4974 15.4462 13.4268C15.5174 13.3915 15.6061 13.321 15.6773 13.3561C15.7484 13.4619 15.8372 13.4268 15.9083 13.4972C15.695 13.6912 15.4285 13.603 15.1974 13.6912M10.0428 12.9682C10.0428 12.9682 10.0072 12.9329 10.0072 12.8975C10.4515 12.3332 10.7715 11.8041 11.0915 11.2044C11.5358 10.9752 11.8913 10.6401 12.229 10.2697C12.7978 9.67001 13.4022 9.14097 14.1131 8.8059C14.3798 8.70013 14.7175 8.73526 14.984 8.84122C14.8774 8.98231 14.7173 8.94699 14.5751 9.03519C14.5395 9.03519 14.5039 9.03519 14.4685 8.99988C14.5041 8.96456 14.5041 8.92924 14.5041 8.8941C14.1664 9.26449 13.7042 9.42315 13.4376 9.86417C13.2421 10.1992 13.0999 10.6225 12.6733 10.7283C12.5311 10.7636 12.7089 10.6225 12.6377 10.6577C11.589 11.2927 10.8602 12.0686 10.0426 12.968M12.8332 10.7634C12.7976 10.8341 12.762 10.8341 12.7266 10.9045C12.6912 10.975 12.6554 11.0103 12.5844 11.0456C12.5488 11.0456 12.5132 11.0456 12.5132 11.0103C12.5488 10.8692 12.6554 10.7457 12.7799 10.7105C12.8332 10.693 12.8332 10.7281 12.8332 10.7634ZM14.3973 15.7547C14.3796 15.79 14.344 15.8253 14.3084 15.8605C14.344 15.8605 14.3796 15.8958 14.344 15.9133C14.2728 15.984 14.1841 16.0544 14.0952 16.0898H14.0419C14.0063 16.1251 13.953 16.1604 13.9174 16.2133C13.8819 16.2486 13.6864 16.2308 13.7397 16.178C13.8286 16.1073 13.8996 16.0193 13.9885 15.9487C14.0417 15.9133 14.095 15.8605 14.1306 15.8076C14.1483 15.7723 14.1662 15.7547 14.2018 15.7369C14.2551 15.7016 14.4329 15.684 14.3973 15.7545M13.793 15.4899C13.6508 15.5781 13.5263 15.6663 13.402 15.7545C13.2598 15.8427 13.0999 15.8956 12.9577 15.9662C12.94 15.9487 12.9221 15.9487 12.9044 15.9487C12.7799 16.0193 12.6733 16.1073 12.5667 16.2133L12.5134 16.2662L12.4601 16.3191L12.3889 16.3897C12.3712 16.4073 12.3712 16.425 12.3356 16.4426C12.3179 16.4601 12.2644 16.4601 12.2644 16.425C12.2467 16.4426 12.2288 16.4426 12.2111 16.4603C12.1934 16.4781 12.1755 16.4779 12.1578 16.4956H12.1222C12.0866 16.531 12.0333 16.5663 11.9977 16.6014C11.9266 16.6721 11.8555 16.7249 11.8022 16.8131V16.8307L11.7845 16.8483C11.7845 16.8483 11.7845 16.8658 11.7668 16.8658C11.7668 16.8834 11.7491 16.8834 11.7491 16.9012C11.7491 16.9012 11.7314 16.9187 11.7135 16.9187L11.6958 16.9012C11.6958 16.9012 11.6958 16.8836 11.6781 16.8836C11.6604 16.866 11.6604 16.8483 11.6425 16.8307V16.8131C11.6781 16.7778 11.7137 16.7425 11.7491 16.6896C11.7668 16.6721 11.7668 16.6543 11.7847 16.6543C11.8024 16.6367 11.8203 16.6014 11.838 16.5837C11.838 16.5661 11.8557 16.5661 11.8557 16.5483C11.8913 16.4955 11.9269 16.4601 11.9623 16.4073L11.98 16.3897C11.9977 16.3721 12.0156 16.3368 12.0333 16.3191C12.051 16.3013 12.051 16.2837 12.0689 16.2484V16.2308C12.0866 16.1955 12.0866 16.178 12.1045 16.1602V16.1426C12.1045 16.1309 12.1104 16.1192 12.1222 16.1073C12.1222 16.0898 12.1222 16.072 12.1399 16.0544V16.0369C12.1755 15.9662 12.2288 15.9133 12.2821 15.8605H12.2644C12.2111 15.8958 12.1755 15.9311 12.1399 15.9662C12.1043 16.0014 12.0333 15.9487 12.0866 15.9133C12.1222 15.8958 12.1399 15.8605 12.1578 15.8427C12.2111 15.7898 12.2644 15.7192 12.3356 15.6663C12.3712 15.631 12.4068 15.6134 12.4422 15.5957L12.4599 15.5781C12.4776 15.5428 12.5132 15.5252 12.5311 15.4899C12.8511 15.1901 13.402 15.1901 13.8108 14.996C13.9707 14.9253 14.1841 15.0313 14.344 14.996C14.4506 14.996 14.5395 14.996 14.6461 15.0666C14.344 15.1195 14.0773 15.3135 13.793 15.4899ZM14.4862 13.1618C14.4506 13.1265 14.5928 13.1618 14.6284 13.0912H14.3617C14.3261 13.0912 14.3261 13.0558 14.3261 13.0205C14.1662 13.0558 13.9529 13.1263 13.793 13.1616C13.5619 13.2322 13.3487 13.3909 13.082 13.4614C12.7087 13.6025 12.4066 13.9022 12.0154 14.0257C11.9799 14.0257 11.9799 13.9904 11.9799 13.9551C12.0154 13.8493 12.1397 13.814 12.2109 13.7258C12.2109 13.6905 12.2109 13.6552 12.1753 13.6552C12.442 13.2848 12.8153 13.0908 13.153 12.791V12.6853C13.2596 12.5442 13.4197 12.4913 13.4907 12.3149C13.5263 12.2091 13.6685 12.0856 13.8284 12.0151C13.7928 11.9798 13.7218 11.9798 13.7218 11.9094C13.5796 11.9094 13.4551 11.98 13.3129 11.874C13.3841 11.8212 13.4551 11.7858 13.5263 11.7505C13.4907 11.7505 13.473 11.7329 13.4551 11.6976C13.4195 11.627 13.5263 11.5565 13.615 11.539C13.7572 11.5037 13.9171 11.5037 14.0239 11.3979C13.7928 11.3626 13.5261 11.4685 13.2773 11.3272C13.4372 10.8864 13.7216 10.5336 14.1128 10.322C14.1483 10.322 14.2194 10.322 14.2194 10.3574C14.2194 10.516 14.1128 10.6571 13.9527 10.6924C14.2194 10.7631 14.4859 10.7631 14.7525 10.8864C14.7169 10.957 14.6459 10.9217 14.6103 10.9217C14.7702 11.0275 14.9836 10.957 15.1435 11.0804C15.0369 11.1861 14.948 11.0804 14.8414 11.0804C15.8901 11.3801 16.9922 11.6094 17.8631 12.2797C17.1165 12.6501 16.3523 12.8088 15.5524 12.9852C15.4458 12.9852 15.3925 12.9852 15.2857 12.9499C15.2857 12.9852 15.2857 13.0557 15.2501 13.0557C15.1079 13.0557 15.019 13.0557 14.9124 13.1263C14.7879 13.2321 14.5925 13.2674 14.4859 13.1616" fill="white"/>
<path d="M48.9685 0.5H29.8788C29.8788 0.5 29.9144 0.5 30.0566 0.588205C30.2165 0.67641 30.4122 0.782182 30.5365 0.835069C30.7853 0.958592 31.0164 1.11725 31.1764 1.36412C31.2476 1.46989 31.3363 1.66387 31.283 1.80496C31.2119 1.96362 31.1764 2.2458 31.0164 2.29887C30.8209 2.40464 30.5542 2.40464 30.3054 2.3695C30.1632 2.3695 30.0387 2.33419 29.8965 2.29887C30.3943 2.49285 30.8742 2.73971 31.2119 3.1983C31.2474 3.26894 31.3718 3.30407 31.5139 3.30407C31.5495 3.30407 31.5495 3.37471 31.5495 3.40985C31.4784 3.48048 31.4073 3.51562 31.4429 3.60382H31.5495C31.7094 3.53319 31.6917 3.19812 31.9228 3.30407C32.0827 3.40985 32.1539 3.63914 32.065 3.79798C31.9228 3.93908 31.7983 4.02728 31.6561 4.13305C31.6205 4.20369 31.6205 4.29171 31.6561 4.36235C31.7627 4.50344 31.7983 4.62696 31.816 4.76806C31.9226 4.99735 31.9582 5.26197 32.0471 5.50883C32.1893 6.00274 32.3138 6.51404 32.2782 7.00795C32.2782 7.27256 32.136 7.50186 32.2426 7.76629C32.3138 8.03091 32.4737 8.22488 32.6159 8.47175C32.7581 8.66572 32.8826 8.80682 32.9892 9.00079C33.1847 9.33586 33.558 9.67093 33.3981 10.0591C33.2915 10.2884 32.9359 10.253 32.6871 10.3941C32.4916 10.5528 32.6515 10.835 32.7583 10.9938C32.9182 11.2936 32.5628 11.4877 32.314 11.5758C32.3852 11.6815 32.5095 11.6464 32.5451 11.7168C32.5807 11.8755 32.7406 11.9815 32.6517 12.1577C32.5095 12.3517 32.1185 12.4574 32.314 12.7574C32.4562 12.9867 32.3673 13.2513 32.2784 13.4981C32.1718 13.7628 31.9407 13.939 31.674 13.9921C31.4785 14.0627 31.2297 14.0627 31.0341 14.0274C30.9629 13.9921 30.8919 13.9567 30.8386 13.9567C30.2698 13.8861 29.701 13.7274 29.1322 13.7274C28.9724 13.7628 28.7946 13.7981 28.6701 13.851C28.5279 13.9567 28.3857 14.0803 28.2612 14.2038C28.2435 14.2391 28.2079 14.2567 28.19 14.292C28.1723 14.3096 28.1544 14.3273 28.1544 14.3449L28.1188 14.3802C28.0122 14.5037 27.941 14.6271 27.8521 14.7681C27.8521 14.7857 27.8344 14.7857 27.8344 14.7857C27.8344 14.8033 27.8167 14.821 27.7988 14.8386C27.6922 15.0326 27.6033 15.2443 27.55 15.4559C27.319 16.2142 27.4256 16.8668 27.5856 17.0256C27.6212 17.0609 28.6876 17.396 29.4342 17.7311C29.7897 17.8897 30.0206 17.9957 30.234 18.1368H48.986V0.5H48.9683H48.9685Z" fill="white"/>
<path d="M31.0164 6.95505C31.1586 6.99036 31.3541 6.99036 31.3541 7.06082C31.2829 7.32543 30.892 7.39589 30.6788 7.6605H30.5722C30.4656 7.73114 30.501 7.8898 30.4123 7.8898C30.3057 7.85448 30.2168 7.8898 30.1102 7.92512C30.2524 8.06621 30.4123 8.15441 30.6079 8.11909C30.6435 8.11909 30.7145 8.18973 30.7145 8.26019C30.7145 8.26019 30.7501 8.26019 30.7857 8.22487C30.8213 8.22487 30.8569 8.22487 30.8569 8.26019V8.40128C30.7503 8.54237 30.5902 8.47191 30.448 8.50705C30.7147 8.57769 30.9812 8.57769 31.2302 8.50705C31.4257 8.43641 31.2302 8.10134 31.3724 7.94268C31.3012 7.94268 31.3724 7.83691 31.3012 7.83691C31.3724 7.76627 31.4434 7.67825 31.4967 7.64293C31.5679 7.64293 31.6566 7.60762 31.6922 7.53716C31.6922 7.46652 31.55 7.43139 31.5856 7.3785C31.7811 7.23741 31.9589 7.04343 31.8877 6.84946C31.8521 6.74368 31.5856 6.74368 31.4255 6.67305C31.2654 6.60241 31.0522 6.67305 30.8567 6.70837C30.6968 6.70837 30.519 6.81414 30.359 6.84946C30.1279 6.92009 29.9147 7.04343 29.719 7.18452C29.9501 7.07875 30.1812 7.04343 30.4477 6.99055C30.6432 6.95523 30.8032 6.91991 31.0164 6.95523" fill="white"/>
<path d="M0 40.1826V26.9552H4.05261C5.52194 26.9552 6.67129 27.308 7.50085 28.0134C8.3422 28.7189 8.76878 29.6831 8.78059 30.9059C8.78059 31.6937 8.5969 32.3756 8.22952 32.9518C7.86214 33.5398 7.34076 33.9982 6.66539 34.3274L10.8246 40.1828H7.60744L4.07031 34.8389H2.70168V40.1828H0V40.1826ZM2.70168 32.5635H4.21251C4.78128 32.5635 5.21966 32.4166 5.52784 32.1227C5.84782 31.8288 6.00772 31.4113 6.00772 30.8704C6.00772 30.3648 5.84782 29.9651 5.52784 29.671C5.20786 29.377 4.76948 29.2361 4.21251 29.2478H2.70168V32.5635ZM12.7087 40.1826V26.9552H20.4406V29.2479H15.3927V32.2991H19.6764V34.5918H15.3927V37.8898H20.4406V40.1826H12.7087ZM15.3215 25.8264L17.4544 23.269H20.2273L17.7744 25.8264H15.3215ZM23.7288 40.1826V26.9552H28.1191C29.5766 26.9552 30.7201 27.308 31.5496 28.0134C32.391 28.7189 32.8117 29.6831 32.8117 30.9059C32.8117 32.1287 32.391 33.0871 31.5496 33.7806C30.7083 34.4861 29.5648 34.8389 28.1191 34.8389H26.4305V40.1828H23.7288V40.1826ZM26.4305 32.5635H28.2257C28.8063 32.5635 29.2566 32.4107 29.5766 32.1049C29.8966 31.811 30.0565 31.3994 30.0565 30.8704C30.0565 30.3414 29.8905 29.9651 29.5587 29.671C29.2387 29.3771 28.7945 29.2361 28.2257 29.2478H26.4305V32.5635ZM34.98 35.0149V26.955H37.6816V35.2267C37.6816 36.1085 37.9186 36.8023 38.3926 37.3077C38.8666 37.8016 39.5243 38.0485 40.3656 38.0485C41.207 38.0485 41.8468 37.8016 42.3207 37.3077C42.7947 36.8138 43.0317 36.1202 43.0317 35.2267V26.955H45.7334V35.0149C45.7334 36.7551 45.2535 38.1131 44.2937 39.089C43.334 40.0649 42.0186 40.5528 40.3477 40.5528C38.6768 40.5528 37.3794 40.0649 36.4196 39.089C35.4599 38.1014 34.98 36.7433 34.98 35.0149ZM49.2528 40.1824V26.955H53.021C54.4074 26.955 55.4916 27.2725 56.2738 27.9073C57.0677 28.5423 57.4646 29.424 57.4646 30.5527C57.4646 31.6814 56.9965 32.5163 56.0604 33.163C56.7596 33.4805 57.2986 33.9038 57.6778 34.4328C58.057 34.9738 58.2466 35.591 58.2466 36.2848C58.2466 37.4958 57.8023 38.4482 56.9135 39.1419C56.0366 39.8356 54.8339 40.1824 53.3054 40.1824H49.2528ZM51.9368 37.8896H53.4653C54.0933 37.8896 54.5852 37.7368 54.9405 37.4311C55.2961 37.1136 55.4737 36.6844 55.4737 36.1437C55.4737 35.6029 55.2959 35.1795 54.9405 34.8738C54.585 34.5799 54.0933 34.433 53.4653 34.433H51.9368V37.8898V37.8896ZM51.9368 32.14H53.0743C53.5839 32.14 53.9808 32.0107 54.2652 31.7521C54.5496 31.5052 54.6918 31.1465 54.6918 30.6762C54.6918 30.2059 54.5496 29.8826 54.2652 29.6357C53.9926 29.377 53.5957 29.2478 53.0743 29.2478H51.9368V32.1402V32.14ZM61.1795 40.1824V26.955H63.8635V37.7486H68.9115V40.1824H61.1795ZM71.471 40.1824V26.955H74.1549V40.1824H71.471ZM77.4431 36.267C77.0995 35.4087 76.9276 34.5091 76.9276 33.5685C76.9276 32.6279 77.0995 31.7343 77.4431 30.8878C77.7867 30.0295 78.2607 29.2829 78.865 28.6479C79.4812 28.0129 80.2278 27.5075 81.1045 27.1312C81.9933 26.755 82.9471 26.5668 83.9663 26.5668C84.9854 26.5668 85.9393 26.755 86.828 27.1312C87.7168 27.5075 88.4634 28.0131 89.0675 28.6479C89.6717 29.2827 90.1459 30.0293 90.4895 30.8878C90.8331 31.7343 91.0049 32.6279 91.0049 33.5685C91.0049 34.6738 90.7739 35.7085 90.3117 36.6725C89.8495 37.6366 89.2097 38.4421 88.392 39.0888L89.1918 39.8472C90.128 40.6937 91.0522 41.1111 91.9647 41.0994C92.3439 41.0994 92.6639 41.0524 92.9245 40.9583V43.2335C92.5097 43.3982 92.0416 43.4746 91.5202 43.4628C90.0865 43.4628 88.7059 42.8868 87.3787 41.7344L85.7967 40.3235C85.2161 40.4763 84.6059 40.5528 83.9659 40.5528C82.9468 40.5528 81.9929 40.3647 81.1041 39.9884C80.2272 39.6122 79.4808 39.1124 78.8646 38.4893C78.2603 37.8543 77.7863 37.1137 77.4427 36.2672L77.4431 36.267ZM80.909 30.3763C80.1033 31.2346 79.6944 32.2987 79.6826 33.5685C79.6826 34.8383 80.0915 35.9025 80.909 36.7607C81.7148 37.619 82.7398 38.0481 83.984 38.0481C84.8016 38.0481 85.5304 37.8541 86.1702 37.4662C86.822 37.0782 87.3315 36.5373 87.6987 35.8435C88.0661 35.1615 88.2498 34.4032 88.2498 33.5683C88.2498 32.2985 87.8409 31.2344 87.0233 30.3761C86.2176 29.5179 85.1984 29.0887 83.9661 29.0887C82.7337 29.0887 81.6969 29.5179 80.8911 30.3761H80.9088L80.909 30.3763ZM93.5288 35.0148V26.9548H96.2305V35.2265C96.2305 36.1083 96.4675 36.8021 96.9415 37.3075C97.4155 37.8014 98.0731 38.0483 98.9145 38.0483C99.7558 38.0483 100.396 37.8014 100.87 37.3075C101.344 36.8136 101.581 36.1201 101.581 35.2265V26.9548H104.282V35.0148C104.282 36.7549 103.802 38.1129 102.843 39.0888C101.883 40.0765 100.568 40.5645 98.8966 40.5526C97.2377 40.5526 95.9282 40.0648 94.9685 39.0888C94.0087 38.1012 93.5288 36.7432 93.5288 35.0148ZM107.802 40.1822V26.9548H115.534V29.2476H110.486V32.2987H114.769V34.5915H110.486V37.8895H115.534V40.1822H107.802ZM0 59.3185V46.0911H7.73193V48.3838H2.70168V51.435H6.98537V53.7277H2.70168V59.3185H0ZM10.2914 59.3185V46.0911H14.344C15.8016 46.0911 16.9568 46.4439 17.81 47.1493C18.6513 47.8548 19.072 48.819 19.072 50.0418C19.072 50.8296 18.8883 51.5175 18.5209 52.1053C18.1536 52.6932 17.6322 53.1458 16.9568 53.4633L21.116 59.3187H17.8989L14.3617 53.9748H12.9931V59.3187H10.2914V59.3185ZM12.9931 51.6994H14.5039C15.0727 51.6994 15.517 51.5524 15.837 51.2585C16.1569 50.9646 16.3109 50.5472 16.2991 50.0063C16.2991 49.5007 16.1451 49.101 15.837 48.8069C15.5288 48.5128 15.0845 48.3719 14.5039 48.3837H12.9931V51.6994ZM21.8803 59.3185L26.9105 46.0911H30.43L35.4602 59.3185H32.5985L31.3187 55.8794H26.0041L24.742 59.3185H21.8803ZM26.8393 53.5866H30.501L28.6702 48.6307L26.8393 53.5866ZM37.6995 59.3185V46.0911H41.1478L47.0845 55.5619V46.0911H49.7685V59.3185H46.3202L40.3835 49.8123V59.3185H37.6995ZM52.559 52.7048C52.559 51.7642 52.7309 50.8706 53.0745 50.024C53.4181 49.1658 53.8921 48.4192 54.4964 47.7842C55.1126 47.1491 55.8592 46.6496 56.7359 46.285C57.6247 45.9088 58.5845 45.7207 59.6154 45.7207C60.7886 45.7207 61.8549 45.9558 62.8149 46.4261C63.7866 46.9081 64.5804 47.5666 65.1965 48.4014L63.0814 50.0416C62.6904 49.489 62.1985 49.0481 61.6061 48.7189C61.0137 48.3897 60.35 48.225 59.6154 48.225C58.3713 48.225 57.3462 48.6541 56.5405 49.5124C55.7347 50.3706 55.3258 51.4348 55.314 52.7046C55.314 53.9744 55.7229 55.0444 56.5405 55.9146C57.3462 56.7728 58.3713 57.1961 59.6154 57.1844C60.3502 57.1844 61.0137 57.0257 61.6061 56.7082C62.1987 56.379 62.6904 55.9321 63.0814 55.3678L65.1965 56.9904C64.6752 57.7076 64.0234 58.2955 63.2414 58.7541C62.4595 59.2127 61.5943 59.5008 60.6464 59.6182L58.9933 62.3696H56.6116L58.2824 59.5831C57.1566 59.3833 56.1554 58.9541 55.2784 58.2957C54.4015 57.6373 53.7261 56.8202 53.2521 55.8443C52.7781 54.8684 52.547 53.822 52.5588 52.705L52.559 52.7048ZM65.9787 59.3185L71.009 46.0911H74.5284L79.5586 59.3185H76.6969L75.4349 55.8794H70.1202L68.8405 59.3185H65.9787ZM70.9555 53.5866H74.5992L72.7684 48.6307L70.9555 53.5866ZM81.798 59.3185V46.0911H84.4996V59.3185H81.798ZM87.2013 57.4843L89.1564 55.703C89.5594 56.2203 90.0096 56.6202 90.5074 56.9024C91.0169 57.1846 91.5442 57.3256 92.0894 57.3256C92.6345 57.3256 93.0373 57.1904 93.3335 56.9199C93.6417 56.6495 93.7957 56.2732 93.7957 55.7912C93.7957 55.509 93.7127 55.2503 93.5469 55.0151C93.3691 54.78 93.138 54.586 92.8537 54.4332C92.5693 54.2685 92.2434 54.104 91.876 53.9393C91.5086 53.7629 91.1353 53.5925 90.7562 53.4278C90.377 53.2631 90.0096 53.0633 89.6542 52.8281C89.2868 52.593 88.9609 52.3342 88.6766 52.052C88.3922 51.7698 88.1611 51.4112 87.9833 50.9762C87.8055 50.5412 87.7166 50.065 87.7166 49.5477C87.7166 48.4777 88.1196 47.5724 88.9253 46.8316C89.7311 46.0909 90.7503 45.7205 91.9826 45.7205C93.8311 45.7205 95.3775 46.4613 96.6217 47.9426L94.6487 49.7064C93.7955 48.601 92.9127 48.0486 92.0003 48.0486C91.5499 48.0486 91.1768 48.1838 90.8805 48.4543C90.5841 48.7248 90.4421 49.054 90.4539 49.4419C90.4539 49.6888 90.5251 49.9181 90.6673 50.1298C90.8095 50.3296 90.9931 50.5119 91.2183 50.6766C91.4553 50.8294 91.7279 50.9824 92.0359 51.1352L92.978 51.576C93.3215 51.7288 93.6592 51.8818 93.991 52.0346C94.3346 52.1993 94.6546 52.3992 94.9508 52.6343C95.2589 52.8578 95.5313 53.1163 95.7683 53.4104C96.0053 53.6926 96.189 54.0277 96.3194 54.4156C96.4616 54.8155 96.5328 55.2563 96.5328 55.7383C96.509 56.9377 96.0765 57.8959 95.2353 58.613C94.4058 59.3302 93.3689 59.6889 92.1248 59.6889C91.0346 59.6889 90.0926 59.5066 89.2986 59.1421C88.5047 58.7658 87.8055 58.2132 87.2013 57.4843ZM99.5367 59.3185V46.0911H107.269V48.3838H102.238V51.435H106.522V53.7277H102.238V57.0257H107.269V59.3185H99.5367Z" fill="white"/>
<path d="M44.1516 95.5794C44.5426 95.5794 44.8803 95.8792 44.7027 96.5671L42.9075 97.0432C43.1919 96.1967 43.725 95.5794 44.1516 95.5794ZM45.147 98.4719H44.7914C44.3471 99.0009 43.8493 99.4242 43.3695 99.4242C42.8896 99.4242 42.6229 99.1245 42.6229 98.4719C42.6229 98.2073 42.6585 97.9251 42.7118 97.6782L45.6268 96.7259C46.1956 95.3854 45.5024 94.8035 44.7025 94.8035C43.3162 94.8035 41.752 97.2021 41.752 99.0891C41.752 99.9886 42.1786 100.482 42.854 100.482C43.6538 100.482 44.4714 99.7241 45.147 98.4719ZM44.6848 94.1685L46.3378 92.6694V92.4577H45.2359L44.2582 94.1861H44.6848V94.1685ZM38.4816 95.6147H39.4413L37.9128 99.777C37.7706 100.13 37.9661 100.482 38.3394 100.482C39.4236 100.482 40.7211 99.5653 41.2188 98.2603H40.9522C40.5612 98.8071 39.708 99.4066 39.0681 99.5301L40.4723 95.6147H41.9119L42.0897 95.015H40.6855L41.2187 93.5159H40.6676L39.6722 95.015L38.4814 95.1737V95.6146L38.4816 95.6147ZM37.4862 95.403C37.6107 95.0151 37.344 94.8033 37.1485 94.8033C36.3131 94.8033 35.3 95.5617 34.909 96.6022H35.1757C35.4424 96.2142 35.9044 95.791 36.3489 95.7203L34.7314 99.8826C34.5892 100.271 34.8736 100.482 35.087 100.482C35.8869 100.482 36.8289 99.7239 37.2199 98.6834H36.9532C36.6865 99.0714 36.2246 99.4947 35.7801 99.5653L37.4864 95.403H37.4862ZM37.6461 93.7452C38.0017 93.7452 38.3038 93.4455 38.3038 93.0927C38.3038 92.7398 38.0017 92.4401 37.6461 92.4401C37.4683 92.4401 37.3084 92.5107 37.1839 92.6341C37.0595 92.7574 36.9885 92.9163 36.9885 93.0927C36.9885 93.463 37.2728 93.7452 37.6461 93.7452ZM29.8432 95.9674C30.092 95.9674 30.2342 96.3553 29.8432 97.2196L28.7056 99.7239C28.4923 100.2 28.7233 100.5 29.1855 100.5C29.4699 100.5 29.5944 100.429 29.7187 100.13L30.8385 97.2021C31.354 96.5671 32.3138 95.8969 32.7404 95.8969C33.0424 95.8969 33.007 96.1438 32.8115 96.5319L31.0873 99.7948C30.9274 100.112 31.1406 100.5 31.5139 100.5C32.3494 100.5 33.3624 99.7419 33.7534 98.7014H33.4513C33.1846 99.0893 32.7226 99.5126 32.2782 99.5832L33.7534 96.6203C33.9489 96.2499 34.0378 95.8973 34.0378 95.6151C34.0378 95.1389 33.7711 94.8214 33.2556 94.8214C32.527 94.8214 31.9047 95.6327 31.0161 96.6381V95.862C31.0161 95.3152 30.8384 94.8214 30.3408 94.8214C29.7543 94.8214 29.2209 95.7386 28.7943 96.6203H29.061C29.3631 96.197 29.6298 95.9677 29.8432 95.9677M28.6879 96.0735C28.8834 95.3856 28.7768 94.8037 28.2614 94.8037C27.6037 94.8037 27.3905 95.2445 26.7505 96.6203V95.8442C26.7505 95.2974 26.5727 94.8037 26.0751 94.8037C25.4887 94.8037 24.9553 95.7209 24.5287 96.6026H24.7954C25.0798 96.1968 25.3465 95.95 25.5597 95.95C25.8085 95.95 25.9507 96.3379 25.5597 97.2022L24.4221 99.7066C24.2087 100.183 24.4398 100.483 24.902 100.483C25.1864 100.483 25.3109 100.412 25.4352 100.112L26.5194 97.1847C26.8394 96.7967 27.1238 96.4616 27.4792 96.0913H28.6879V96.0737V96.0735ZM22.4847 95.5796C22.8757 95.5796 23.2134 95.8794 23.0358 96.5672L21.2406 97.0434C21.5427 96.1969 22.0581 95.5796 22.4847 95.5796ZM23.4801 98.4721H23.1245C22.6802 99.0011 22.1824 99.4244 21.7026 99.4244C21.2227 99.4244 20.956 99.1246 20.956 98.4721C20.956 98.2074 20.9916 97.9253 21.0449 97.6784L23.9599 96.7261C24.5287 95.3856 23.8534 94.8037 23.0356 94.8037C21.6493 94.8037 20.0851 97.2022 20.0851 99.0893C20.0851 99.9887 20.5117 100.483 21.1871 100.483C21.9869 100.483 22.8045 99.7243 23.4801 98.4721ZM16.8147 95.6149H17.7744L16.2459 99.7772C16.1037 100.13 16.2992 100.483 16.6725 100.483C17.7567 100.483 19.0721 99.5655 19.552 98.2605H19.2853C18.8943 98.8073 18.0411 99.4068 17.4012 99.5303L18.8054 95.6149H20.245L20.4228 95.0152H19.0186L19.5518 93.5161H19.0007L18.0053 95.0152L16.8145 95.1739V95.6147L16.8147 95.6149ZM11.7134 98.86C11.7134 97.5726 13.1531 95.8265 13.9708 95.8265C14.1486 95.8265 14.3264 95.844 14.4686 95.8971L13.6331 98.1192C13.1532 98.7012 12.4067 99.4066 12.0511 99.4066C11.8377 99.4066 11.7134 99.248 11.7134 98.8598M16.1393 94.5565L15.695 94.5211L15.1973 95.015H15.1084C12.9932 95.015 10.7181 97.6253 10.7181 99.6888C10.7181 100.165 10.9847 100.482 11.5002 100.482C12.1223 100.482 12.7267 99.6006 13.4199 98.6659L13.3843 99.0009C13.2954 99.9532 13.5977 100.482 14.0953 100.482C14.6818 100.482 15.2151 99.5653 15.6238 98.6836H15.3572C15.0728 99.0893 14.8061 99.3362 14.5929 99.3362C14.3797 99.3362 14.2196 98.9305 14.5929 98.0839L16.1393 94.5566V94.5565ZM11.6068 96.0731C11.8023 95.3853 11.6957 94.8033 11.1802 94.8033C10.5226 94.8033 10.3094 95.2442 9.66941 96.6199V95.8438C9.66941 95.297 9.49162 94.8033 8.97615 94.8033C8.38967 94.8033 7.8563 95.7205 7.44761 96.6022H7.71429C7.99868 96.1965 8.26536 95.9496 8.47856 95.9496C8.72735 95.9496 8.86955 96.3376 8.47856 97.2019L7.32331 99.7239C7.10992 100.2 7.34101 100.5 7.80319 100.5C8.08757 100.5 8.21206 100.429 8.33637 100.13L9.45621 97.1843C9.77619 96.7963 10.0606 96.4613 10.416 96.0909H11.6068V96.0733V96.0731ZM4.15927 100.288L4.26587 99.9708C2.86164 99.7062 2.68385 99.7062 3.25281 98.1895L3.78599 96.761H4.90583C5.5991 96.761 5.6168 97.0608 5.5102 97.8193H5.91908L6.84343 95.2972H6.43455C6.07898 95.8969 5.81248 96.3555 5.04821 96.3555H3.92837L4.69264 94.292C4.95932 93.5513 5.08362 93.4102 6.04357 93.4102H6.29236C7.27001 93.4102 7.39431 93.6748 7.39431 94.6976H7.7853L8.10528 92.9867H2.68385L2.57725 93.3042C3.6971 93.5335 3.8037 93.6393 3.28822 95.0855L2.13297 98.2073C1.59979 99.6357 1.38641 99.7593 0.088959 99.9886L6.50009e-05 100.306H4.15927V100.288V100.288ZM31.0521 83.4276C31.4431 83.4276 31.7808 83.7274 31.6032 84.4153L29.808 84.8914C30.0923 84.0449 30.6255 83.4276 31.0521 83.4276ZM32.0475 86.3201H31.6919C31.2476 86.8491 30.7498 87.2724 30.2699 87.2724C29.7901 87.2724 29.5234 86.9727 29.5234 86.3201C29.5234 86.0555 29.559 85.7733 29.6123 85.5264L32.5273 84.5741C33.0961 83.2337 32.4029 82.6517 31.603 82.6517C30.2166 82.6517 28.6525 85.0503 28.6525 86.9374C28.6525 87.8368 29.0791 88.3307 29.7545 88.3307C30.5543 88.3483 31.3719 87.5724 32.0475 86.3201ZM31.5853 82.0167L33.2383 80.5176V80.3059H32.1364L31.1587 82.0343H31.5853V82.0167ZM25.3821 83.463H26.3418L24.8133 87.6252C24.6711 87.9781 24.8666 88.3307 25.2399 88.3307C26.3241 88.3307 27.6216 87.4135 28.1193 86.1086H27.8527C27.4617 86.6554 26.6085 87.2548 25.9685 87.3784L27.3728 83.463H28.8124L28.9902 82.8633H27.586L28.1192 81.3642H27.5681L26.5727 82.8633L25.3819 83.0397V83.463H25.3821ZM24.3867 83.269C24.5112 82.881 24.2445 82.6693 24.0311 82.6693C23.1957 82.6693 22.1826 83.4276 21.7916 84.4682H22.0583C22.325 84.0802 22.787 83.6569 23.2315 83.5863L21.614 87.7486C21.4718 88.1365 21.7562 88.3483 21.9696 88.3483C22.7695 88.3483 23.7115 87.5899 24.1025 86.5494H23.8358C23.5691 86.9373 23.1072 87.3606 22.6627 87.4313L24.3869 83.269H24.3867ZM24.5466 81.6112C24.9022 81.6112 25.2043 81.3115 25.2043 80.9586C25.2043 80.6058 24.9022 80.3061 24.5466 80.3061C24.3155 80.3061 24.1023 80.4296 23.9778 80.6236C23.8533 80.8175 23.8533 81.0822 23.9778 81.2937C24.1023 81.4877 24.3155 81.6288 24.5466 81.6112ZM19.3921 87.4313L22.0581 80.4118L21.9692 80.2883L20.1207 80.5V80.7118L20.4763 80.9764C20.7963 81.2232 20.6897 81.4525 20.4051 82.2462L18.3788 87.6077C18.201 87.9252 18.4321 88.3131 18.8054 88.3131C19.6408 88.3131 20.5473 87.5548 20.9383 86.5143H20.6716C20.3872 86.92 19.8184 87.3432 19.3919 87.4314M13.9529 86.7084C13.9529 85.421 15.3926 83.6749 16.2103 83.6749C16.3881 83.6749 16.548 83.6924 16.7081 83.7455L15.8549 85.9676C15.375 86.5496 14.6285 87.255 14.2729 87.255C14.0774 87.2726 13.9529 87.0964 13.9529 86.7082M18.3788 82.4226L17.9345 82.3873L17.4368 82.8812H17.3479C15.2327 82.8812 12.9576 85.4915 12.9576 87.555C12.9576 88.0311 13.2242 88.3486 13.7397 88.3486C14.3618 88.3486 14.9662 87.4668 15.6594 86.532L15.6238 86.8671C15.5349 87.8194 15.8372 88.3486 16.3348 88.3486C16.9213 88.3486 17.4546 87.4314 17.8633 86.5498H17.5967C17.3123 86.9555 17.0456 87.2023 16.8324 87.2023C16.6192 87.2023 16.4591 86.7966 16.8324 85.9678L18.3788 82.4228V82.4226ZM8.08739 89.3538C8.08739 88.807 8.62057 88.4544 9.38484 88.1545C9.63363 88.278 10.0248 88.4191 10.5224 88.5777C11.3222 88.8424 11.6243 88.9481 11.6243 89.1774C11.6243 89.6889 10.8957 90.0769 9.56244 90.0769C8.56709 90.0944 8.08721 89.8829 8.08721 89.3538M10.2734 85.9852C9.91783 85.9852 9.79353 85.6855 9.79353 85.3502C9.79353 84.3097 10.2913 83.0574 11.091 83.0574C11.4466 83.0574 11.5709 83.3572 11.5709 83.6924C11.5709 84.7154 11.0554 85.9852 10.2734 85.9852ZM12.5485 88.8424C12.5485 88.1722 11.9441 87.9252 10.9665 87.643C10.131 87.3961 9.74004 87.3255 9.74004 87.0433C9.74004 86.8316 9.91783 86.5671 10.2732 86.3732C11.6596 86.3025 12.5306 85.068 12.5306 83.9746C12.5306 83.7806 12.495 83.6042 12.4417 83.4456H13.3838L13.5616 82.8459H11.9618C11.7485 82.7048 11.482 82.6342 11.1797 82.6342C9.72216 82.6342 8.7801 83.904 8.7801 85.0327C8.7801 85.7557 9.20668 86.2496 9.88205 86.3378C9.20668 86.6553 8.81551 86.9904 8.81551 87.4137C8.81551 87.6606 8.9044 87.837 9.1176 87.9956C7.55347 88.4542 6.91351 89.0361 6.91351 89.7065C6.91351 90.4295 7.87327 90.7294 9.01082 90.7294C10.9305 90.747 12.548 89.7065 12.548 88.8424M5.2959 84.6096C5.98916 84.6096 6.00686 84.9094 5.90027 85.6679H6.30914L7.23349 83.1458H6.82462C6.46904 83.7455 6.20254 84.2041 5.43828 84.2041H3.89185L4.65612 82.1406C4.9228 81.3998 5.06499 81.2588 6.00705 81.2588H6.68242C7.66007 81.2588 7.78438 81.5234 7.78438 82.5461H8.17536L8.49534 80.8353H2.68385L2.57725 81.1528C3.6971 81.3821 3.8037 81.4879 3.28822 82.9341L2.13297 86.0559C1.59979 87.4843 1.38641 87.6079 0.088959 87.8372L6.50009e-05 88.1547H6.46996L7.62522 86.338H7.18093C6.43437 87.0788 5.6701 87.7314 4.23046 87.7314C2.50625 87.7314 2.66633 87.6432 3.23511 86.0559L3.76829 84.6274H5.29682V84.6098L5.2959 84.6096ZM6.13135 80.3062L7.78438 79.1069V78.8952H6.68242L5.70477 80.3061H6.13135V80.3062ZM30.8378 71.294C31.2288 71.294 31.5665 71.5937 31.3889 72.2816L29.5937 72.7578C29.878 71.8937 30.4112 71.294 30.8378 71.294ZM31.8332 74.1864H31.4776C31.0333 74.7155 30.5355 75.1388 30.0556 75.1388C29.5758 75.1388 29.3091 74.839 29.3091 74.1864C29.3091 73.9218 29.3447 73.6396 29.398 73.3928L32.313 72.4405C32.8818 71.1 32.1885 70.5181 31.3887 70.5181C30.0023 70.5181 28.4382 72.9166 28.4382 74.8037C28.4382 75.7031 28.8648 76.197 29.5402 76.197C30.34 76.197 31.1576 75.4387 31.8332 74.1864ZM31.371 69.8831L33.024 68.3839V68.1722H31.922L30.9444 69.9006H31.371V69.8831ZM25.1678 71.3115H26.1454L24.6169 75.4738C24.4747 75.8266 24.6702 76.1793 25.0435 76.1793C26.1277 76.1793 27.443 75.2621 27.9229 73.9571H27.6562C27.2653 74.5039 26.4121 75.1034 25.7721 75.227L27.1764 71.3115H28.616L28.7938 70.7119H27.3896L27.9227 69.2127H27.3717L26.3763 70.7119L25.1855 70.8705V71.3114H25.1678V71.3115ZM24.67 71.7877C24.8655 71.0998 24.7589 70.5179 24.2434 70.5179C23.5857 70.5179 23.3725 70.9587 22.7326 72.3345V71.5584C22.7326 71.0116 22.5548 70.5179 22.0572 70.5179C21.4707 70.5179 20.9374 71.4351 20.5108 72.3168H20.7775C21.0619 71.911 21.3285 71.6642 21.5417 71.6642C21.7905 71.6642 21.9327 72.0521 21.5417 72.9164L20.4042 75.4208C20.1908 75.8969 20.4219 76.1969 20.8841 76.1969C21.1685 76.1969 21.2929 76.1262 21.4172 75.8265L22.5371 72.8989C22.8571 72.5109 23.1415 72.1758 23.4969 71.8055H24.67V71.7879V71.7877ZM18.4668 71.2938C18.8578 71.2938 19.1955 71.5935 19.0178 72.2814L17.2226 72.7576C17.507 71.8935 18.0402 71.2938 18.4668 71.2938ZM19.4621 74.1863H19.1066C18.6623 74.7153 18.1645 75.1386 17.6846 75.1386C17.2047 75.1386 16.9381 74.8388 16.9381 74.1863C16.9381 73.9216 16.9737 73.6395 17.027 73.3926L19.942 72.4403C20.5108 71.0998 19.8354 70.5179 19.0177 70.5179C17.6313 70.5179 16.0672 72.9164 16.0672 74.8035C16.0672 75.7029 16.4938 76.1969 17.1691 76.1969C17.969 76.1969 18.7866 75.4385 19.4621 74.1863ZM12.6723 75.3503C12.3879 75.3503 11.979 75.0857 11.979 74.8564C11.979 74.7858 12.1035 74.4507 12.2634 74.0452L12.7256 72.8107C13.2233 72.211 14.0053 71.5584 14.4498 71.5584C14.7164 71.5584 14.9119 71.7348 14.9119 72.1052C14.8942 73.2693 13.8277 75.3503 12.6724 75.3503M15.9075 71.6642C15.9075 70.8176 15.6941 70.5001 15.0899 70.5001C14.3434 70.5001 13.6503 71.2938 12.9391 72.2461L14.4322 68.2602L14.3434 68.1367L12.4948 68.3484V68.5602L12.8504 68.8248C13.1704 69.0717 13.0638 69.3187 12.7792 70.0946L11.1618 74.3098C11.0196 74.6626 10.8597 75.0859 10.8597 75.1916C10.8597 75.6856 11.5351 76.1617 12.1572 76.1617C13.5614 76.197 15.9075 73.6396 15.9075 71.6644M10.4506 71.1176C10.5572 70.7296 10.3084 70.5179 10.0951 70.5179C9.25961 70.5179 8.24655 71.2762 7.85557 72.3168H8.12225C8.38893 71.9288 8.85092 71.5055 9.29539 71.4349L7.67796 75.5972C7.53577 75.9851 7.82016 76.1969 8.03354 76.1969C8.8334 76.1969 9.77545 75.4385 10.1664 74.398H9.89976C9.63308 74.7859 9.17109 75.2092 8.72661 75.2798L10.4508 71.1176H10.4506ZM10.6284 69.4598C10.984 69.4598 11.2861 69.16 11.2861 68.8072C11.2861 68.4544 10.984 68.1547 10.6284 68.1547C10.3973 68.1547 10.1841 68.2782 10.0597 68.4722C9.93517 68.6661 9.93517 68.9307 10.0597 69.1423C10.1841 69.3363 10.3973 69.4774 10.6284 69.4598ZM6.52252 68.6661H2.6833L2.5767 68.9836C3.69654 69.2129 3.80314 69.3187 3.28767 70.7649L2.13241 73.8867C1.59923 75.3152 1.38585 75.4387 0.0884057 75.668L-0.000488281 75.9855H5.82945L7.09148 73.7456H6.6472C5.91852 74.5393 5.08307 75.5445 3.78544 75.5445C2.80779 75.5445 2.66559 75.3681 3.21666 73.8689L4.37192 70.7472C4.9051 69.3187 5.11848 69.1952 6.41593 68.9659L6.52252 68.6661Z" fill="white"/>
</g>
<defs>
<clipPath id="clip0_6647_2410">
<rect width="115.534" height="100" fill="white" transform="translate(0 0.5)"/>
</clipPath>
</defs>
</svg>
