<svg width="66" height="58" viewBox="0 0 66 58" fill="none" xmlns="http://www.w3.org/2000/svg">
<path d="M0.0292969 15.3141H2.37961C4.07023 15.3141 5.11455 16.182 5.11455 17.6097C5.11455 18.5323 4.6642 19.2236 3.88401 19.5973L6.30005 23.0017H4.43294L2.39057 19.8931H1.58846V23.0004H0.0292969V15.3141ZM1.58968 16.6421V18.5639H2.46846C3.12694 18.5639 3.51156 18.2122 3.51156 17.5866C3.51156 17.0048 3.12694 16.6421 2.46846 16.6421H1.58968Z" fill="black"/>
<path d="M7.26758 15.3144H11.7479V16.6436H8.82675V18.423H11.3085V19.7522H8.82675V21.674H11.7479V23.0032H7.26758V15.3144V15.3144ZM8.78415 14.6547L10.0256 13.1722H11.6286L10.2009 14.6547H8.78415Z" fill="black"/>
<path d="M13.5586 15.3141H16.0951C17.7858 15.3141 18.8191 16.182 18.8191 17.6097C18.8191 19.0265 17.787 19.8943 16.0951 19.8943H15.1178V23.0017H13.5586V15.3141ZM15.119 16.6421V18.5639H16.1621C16.8206 18.5639 17.2161 18.2122 17.2161 17.5866C17.2161 17.0048 16.8206 16.6421 16.1621 16.6421H15.119Z" fill="black"/>
<path d="M24.6412 15.3141H26.2003V19.9929C26.2003 22.0133 25.0148 23.222 23.082 23.222C21.1601 23.222 19.9746 22.0146 19.9746 19.9929V15.3141H21.5338V20.1243C21.5338 21.1565 22.1156 21.7602 23.0929 21.7602C24.0484 21.7602 24.6412 21.1565 24.6412 20.1243V15.3141Z" fill="black"/>
<path d="M28.1309 15.3141H30.3169C31.9198 15.3141 32.8863 16.1053 32.8863 17.4003C32.8863 18.015 32.6002 18.553 32.0732 18.9157C32.8863 19.2784 33.3366 19.9369 33.3366 20.739C33.3366 22.1448 32.2497 23.0017 30.4812 23.0017H28.1309V15.3141ZM29.69 16.6421V18.3217H30.3485C30.9413 18.3217 31.2821 18.0247 31.2821 17.4758C31.2821 16.9597 30.9413 16.6408 30.3485 16.6408H29.69V16.6421ZM29.69 19.6618V21.6713H30.5688C31.2942 21.6713 31.7324 21.2867 31.7324 20.6501C31.7324 20.0136 31.293 19.6618 30.5688 19.6618H29.69Z" fill="black"/>
<path d="M34.9316 15.3141H36.4908V21.5849H39.412V23.0017H34.9316V15.3141Z" fill="black"/>
<path d="M40.7852 15.3141H42.3443V23.0017H40.7852V15.3141Z" fill="black"/>
<path d="M52.5575 23.5388C52.7219 23.5388 52.9422 23.5169 53.1065 23.4512V24.7694C52.8533 24.8679 52.6342 24.9118 52.2934 24.9118C51.4366 24.9118 50.6466 24.56 49.8883 23.9015L48.9767 23.0885C48.6468 23.1761 48.2963 23.2199 47.9226 23.2199C45.4956 23.2199 43.8379 21.3528 43.8379 19.1571C43.8379 16.9601 45.4956 15.0942 47.9226 15.0942C50.3387 15.0942 51.9964 16.9613 51.9964 19.1571C51.9964 20.4424 51.4256 21.6169 50.4811 22.3643L50.9424 22.8037C51.5364 23.3416 52.0634 23.5388 52.5575 23.5388ZM50.3947 19.1571C50.3947 17.6855 49.3625 16.5548 47.9239 16.5548C46.4742 16.5548 45.4421 17.6855 45.4421 19.1571C45.4421 20.6286 46.4742 21.7593 47.9239 21.7593C49.3625 21.7606 50.3947 20.6286 50.3947 19.1571Z" fill="black"/>
<path d="M58.0279 15.3141H59.5871V19.9929C59.5871 22.0133 58.4015 23.222 56.4687 23.222C54.5468 23.222 53.3613 22.0146 53.3613 19.9929V15.3141H54.9205V20.1243C54.9205 21.1565 55.5023 21.7602 56.4797 21.7602C57.4351 21.7602 58.0279 21.1565 58.0279 20.1243V15.3141V15.3141Z" fill="black"/>
<path d="M61.5176 15.3141H65.9979V16.6433H63.0767V18.4227H65.5585V19.7519H63.0767V21.6738H65.9979V23.0029H61.5176V15.3141Z" fill="black"/>
<path d="M0.0292969 26.3991H4.50962V27.7282H1.58846V29.5077H4.07023V30.8368H1.58968V34.0878H0.0292969V26.3991Z" fill="black"/>
<path d="M5.88477 26.3991H8.23508C9.9257 26.3991 10.97 27.2669 10.97 28.6947C10.97 29.6173 10.5197 30.3086 9.73948 30.6823L12.1555 34.0866H10.2884L8.24603 30.9792H7.44393V34.0866H5.88477V26.3991ZM7.44393 27.727V29.6489H8.32272C8.98119 29.6489 9.36581 29.2971 9.36581 28.6715C9.36581 28.0897 8.98119 27.727 8.32272 27.727H7.44393V27.727Z" fill="black"/>
<path d="M15.3921 26.3991H17.4345L20.3447 34.0866H18.687L17.9518 32.0881H14.8773L14.1421 34.0866H12.4844L15.3921 26.3991ZM17.4674 30.7577L16.4133 27.8694L15.3593 30.7577H17.4674Z" fill="black"/>
<path d="M21.5312 26.3991H23.5298L26.967 31.9006V26.3991H28.5262V34.0866H26.5276L23.0904 28.5632V34.0866H21.5312V26.3991Z" fill="black"/>
<path d="M36.1138 31.7912L37.3443 32.7357C36.7516 33.5488 35.829 34.1196 34.7092 34.262L33.7537 35.8541H32.3698L33.3363 34.2401C31.3377 33.8884 30.0195 32.1978 30.0195 30.243C30.0195 28.0473 31.6773 26.1802 34.1043 26.1802C35.4991 26.1802 36.6408 26.8058 37.3443 27.7393L36.1138 28.6948C35.6744 28.0692 34.9831 27.6408 34.1043 27.6408C32.6547 27.6408 31.6225 28.7715 31.6225 30.243C31.6225 31.7146 32.6547 32.8453 34.1043 32.8453C34.9831 32.8453 35.6744 32.4168 36.1138 31.7912Z" fill="black"/>
<path d="M40.5855 26.3991H42.6279L45.5381 34.0866H43.8803L43.1452 32.0881H40.0707L39.3355 34.0866H37.6777L40.5855 26.3991ZM42.6607 30.7577L41.6067 27.8694L40.5526 30.7577H42.6607Z" fill="black"/>
<path d="M46.7246 26.3991H48.2838V34.0866H46.7246V26.3991Z" fill="black"/>
<path d="M50.8788 31.9773C51.3401 32.57 51.9547 32.9218 52.5804 32.9218C53.195 32.9218 53.5687 32.5919 53.5687 32.032C53.5687 30.6591 50.0548 30.967 50.0548 28.4086C50.0548 27.189 51.054 26.1788 52.5146 26.1788C53.6673 26.1788 54.557 26.6948 55.2057 27.475L54.0641 28.4962C53.6137 27.9144 53.1086 27.5408 52.5268 27.5408C51.9888 27.5408 51.6371 27.8925 51.6371 28.3429C51.6371 29.7158 55.151 29.3969 55.151 32.0004C55.1291 33.4281 54.0093 34.3069 52.6035 34.3069C51.3072 34.3069 50.4297 33.8346 49.748 33.0216L50.8788 31.9773Z" fill="black"/>
<path d="M56.7852 26.3991H61.2655V27.7282H58.3443V29.5077H60.8261V30.8368H58.3443V32.7587H61.2655V34.0878H56.7852V26.3991Z" fill="black"/>
<path d="M25.0412 55.3123C25.2493 55.3123 25.4307 55.4706 25.3345 55.8698L24.3657 56.095C24.5337 55.6446 24.816 55.3123 25.0412 55.3123ZM25.5768 56.8727H25.3857C25.1434 57.16 24.8842 57.3851 24.6249 57.3851C24.3596 57.3851 24.2245 57.2269 24.2245 56.8727C24.2245 56.7267 24.2415 56.5794 24.2695 56.4443L25.8311 55.9318C26.1354 55.2101 25.7691 54.8948 25.3406 54.8948C24.6018 54.8948 23.762 56.129 23.762 57.2111C23.762 57.6955 23.9932 57.9608 24.3535 57.9608C24.7759 57.9608 25.2153 57.5494 25.5768 56.8727ZM25.2664 54.6076L26.3655 53.5815V53.4635H25.7739L25.0972 54.6076H25.2664ZM21.8961 55.3294H22.4146L21.5918 57.5787C21.5188 57.7697 21.6198 57.9621 21.817 57.9621C22.2844 57.9621 23.0402 57.4995 23.3056 56.8691H23.1595C22.9514 57.0894 22.5509 57.3815 22.2065 57.4436L22.9623 55.3294H23.734L23.8301 55.008H23.0804L23.3676 54.1962H23.0694L22.5339 55.008L21.8973 55.0981V55.3294H21.8961ZM21.1974 55.2223C21.2595 55.0141 21.1183 54.8948 21.0112 54.8948C20.5609 54.8948 20.0253 55.3002 19.8111 55.8698H19.9572C20.1032 55.6616 20.3515 55.4304 20.5828 55.3902L19.721 57.6334C19.6419 57.8416 19.8002 57.9608 19.9073 57.9608C20.3357 57.9608 20.8372 57.5494 21.0514 56.9859H20.9053C20.7593 57.194 20.511 57.4253 20.2797 57.4655L21.1974 55.2223ZM21.3545 54.0952C21.5577 54.0952 21.7269 53.9321 21.7269 53.7227C21.7269 53.5195 21.5577 53.3503 21.3545 53.3503C21.1463 53.3503 20.982 53.5195 20.982 53.7227C20.9832 53.9309 21.1463 54.0952 21.3545 54.0952ZM16.3897 57.5446C16.2765 57.7977 16.3958 57.9621 16.6429 57.9621C16.795 57.9621 16.8632 57.9231 16.9253 57.7588L17.5229 56.1753C17.7992 55.8369 18.3688 55.4766 18.594 55.4766C18.7571 55.4766 18.7352 55.6117 18.628 55.815L17.7091 57.5787C17.619 57.7539 17.7371 57.9621 17.9343 57.9621C18.3846 57.9621 18.9202 57.5567 19.1344 56.9871H18.9883C18.8423 57.1953 18.594 57.4265 18.3627 57.4667L19.1514 55.8722C19.2524 55.6689 19.3036 55.4779 19.3036 55.3257C19.3036 55.0665 19.1575 54.8973 18.8861 54.8973C18.4966 54.8973 18.1022 55.3367 17.6349 55.8783V55.4608C17.6349 55.1626 17.5387 54.8973 17.2685 54.8973C17.0993 54.8973 16.9362 55.0433 16.7841 55.2527V55.3087C17.0774 55.2916 17.2064 55.731 16.9983 56.1935L16.3897 57.5446ZM16.3788 55.5825C16.4859 55.2162 16.4299 54.8948 16.1475 54.8948C15.8152 54.8948 15.73 55.148 15.3916 55.8759V55.4584C15.3916 55.1602 15.2955 54.8948 15.0253 54.8948C14.71 54.8948 14.4228 55.3854 14.2025 55.8698H14.3485C14.5007 55.6495 14.6419 55.5205 14.7539 55.5205C14.889 55.5205 14.962 55.7286 14.7539 56.1911L14.1453 57.5434C14.0321 57.7965 14.1514 57.9608 14.3985 57.9608C14.5506 57.9608 14.6188 57.9219 14.6808 57.7576L15.2785 56.1741C15.4476 55.9659 15.5998 55.7846 15.7909 55.5825H16.3788ZM12.9172 55.3123C13.1253 55.3123 13.3067 55.4706 13.2105 55.8698L12.2417 56.095C12.4108 55.6446 12.692 55.3123 12.9172 55.3123ZM13.4527 56.8727H13.2616C13.0194 57.16 12.7602 57.3851 12.5009 57.3851C12.2356 57.3851 12.1005 57.2269 12.1005 56.8727C12.1005 56.7267 12.1175 56.5794 12.1455 56.4443L13.7071 55.9318C14.0114 55.2101 13.645 54.8948 13.2166 54.8948C12.4778 54.8948 11.638 56.129 11.638 57.2111C11.638 57.6955 11.8692 57.9608 12.2295 57.9608C12.6531 57.9608 13.0925 57.5494 13.4527 56.8727ZM9.77328 55.3294H10.2918L9.469 57.5787C9.39597 57.7697 9.49699 57.9621 9.69417 57.9621C10.1616 57.9621 10.9174 57.4995 11.1827 56.8691H11.0367C10.8286 57.0894 10.4281 57.3815 10.0837 57.4436L10.8395 55.3294H11.6112L11.7073 55.008H10.9576L11.2448 54.1962H10.9466L10.4111 55.008L9.7745 55.0981V55.3294H9.77328ZM6.92637 57.0821C6.92637 56.3883 7.69805 55.4474 8.13257 55.4474C8.22872 55.4474 8.31879 55.4584 8.39791 55.4815L7.94756 56.6816C7.68831 56.9969 7.28787 57.3803 7.10164 57.3803C6.99453 57.3803 6.92637 57.2902 6.92637 57.0821ZM9.29981 54.7658L9.06369 54.7488L8.79835 55.008H8.74236C7.45705 55.008 6.34701 56.4504 6.34701 57.4995C6.34701 57.7929 6.52715 57.9621 6.80953 57.9621C7.14181 57.9621 7.46922 57.4886 7.83558 56.981L7.81854 57.1612C7.77351 57.6797 7.93174 57.9621 8.20194 57.9621C8.51719 57.9621 8.80443 57.4715 9.02474 56.9871H8.87868C8.72654 57.2074 8.58535 57.3364 8.47337 57.3364C8.3553 57.3364 8.2701 57.1222 8.47337 56.6658L9.29981 54.7658ZM6.56001 55.5825C6.66712 55.2162 6.61113 54.8948 6.32875 54.8948C5.99647 54.8948 5.91127 55.148 5.5729 55.8759V55.4584C5.5729 55.1602 5.47675 54.8948 5.20654 54.8948C4.8913 54.8948 4.60405 55.3854 4.38375 55.8698H4.52981C4.68195 55.6495 4.82314 55.5205 4.93512 55.5205C5.07022 55.5205 5.14325 55.7286 4.93512 56.1911L4.32654 57.5434C4.21335 57.7965 4.33263 57.9608 4.57971 57.9608C4.73185 57.9608 4.80001 57.9219 4.86209 57.7576L5.45971 56.1741C5.62889 55.9659 5.78104 55.7846 5.97213 55.5825H6.56001ZM2.24278 57.8489L2.29877 57.6736C1.54901 57.5324 1.45285 57.5324 1.75227 56.7157L2.05656 55.8759H2.88544C3.25788 55.8759 3.26275 56.028 3.20676 56.4333H3.42098L3.91758 55.075H3.70336C3.51714 55.3963 3.37108 55.6324 2.96455 55.6324H2.14784L2.58237 54.4433C2.71747 54.066 2.79658 53.9868 3.30414 53.9868H3.66441C4.189 53.9868 4.25108 54.128 4.25108 54.6575H4.45921L4.63448 53.7337H1.52101L1.46502 53.9089C2.06751 54.0331 2.12472 54.0891 1.84234 54.8668L1.1656 56.7157C0.883226 57.4874 0.765162 57.5494 0.0726044 57.6736L0.0214844 57.8489H2.24278V57.8489Z" fill="black"/>
<path d="M17.4949 48.2661C17.703 48.2661 17.8844 48.4244 17.7882 48.8236L16.8194 49.0488C16.9873 48.5996 17.2685 48.2661 17.4949 48.2661ZM18.0292 49.8277H17.8381C17.5959 50.115 17.3367 50.3402 17.0774 50.3402C16.8121 50.3402 16.677 50.1819 16.677 49.8277C16.677 49.6817 16.694 49.5344 16.722 49.3993L18.2836 48.8869C18.5879 48.1651 18.2215 47.8499 17.7931 47.8499C17.0543 47.8499 16.2144 49.0841 16.2144 50.1661C16.2144 50.6505 16.4457 50.9159 16.806 50.9159C17.2295 50.9159 17.6689 50.5045 18.0292 49.8277ZM17.7201 47.5626L18.8191 46.5366V46.4185H18.2276L17.5509 47.5626H17.7201V47.5626ZM14.3498 48.2832H14.8683L14.0455 50.5325C13.9724 50.7236 14.0735 50.9159 14.2707 50.9159C14.738 50.9159 15.4939 50.4534 15.7592 49.8229H15.6132C15.405 50.0432 15.0046 50.3353 14.6601 50.3974L15.416 48.2832H16.1877L16.2838 47.9619H15.5341L15.8213 47.15H15.5231L14.9876 47.9619L14.351 48.0519V48.2832H14.3498ZM13.6499 48.1761C13.712 47.9679 13.5708 47.8487 13.4637 47.8487C13.0133 47.8487 12.4778 48.254 12.2636 48.8236H12.4096C12.5557 48.6155 12.804 48.3842 13.0352 48.344L12.1735 50.5872C12.0944 50.7954 12.2526 50.9147 12.3597 50.9147C12.7882 50.9147 13.2896 50.5033 13.5038 49.9397H13.3578C13.2117 50.1479 12.9634 50.3791 12.7322 50.4193L13.6499 48.1761ZM13.8081 47.049C14.0114 47.049 14.1806 46.8859 14.1806 46.6765C14.1806 46.4733 14.0114 46.3041 13.8081 46.3041C13.6 46.3041 13.4357 46.4733 13.4357 46.6765C13.4369 46.8859 13.6 47.049 13.8081 47.049ZM10.8103 50.4193L12.3829 46.2992L12.3317 46.2372L11.3458 46.3504V46.4684L11.5369 46.6145C11.7122 46.7496 11.655 46.8798 11.498 47.2961L10.2699 50.5313C10.1798 50.7065 10.2979 50.9147 10.4951 50.9147C10.9454 50.9147 11.425 50.5094 11.6392 49.9397H11.4931C11.3458 50.1491 11.0403 50.3803 10.8103 50.4193ZM7.8222 50.0359C7.8222 49.3421 8.59387 48.4013 9.02839 48.4013C9.12455 48.4013 9.21461 48.4122 9.29373 48.4353L8.84338 49.6354C8.58413 49.9507 8.18369 50.3341 7.99746 50.3341C7.89036 50.3353 7.8222 50.2452 7.8222 50.0359ZM10.1956 47.7196L9.95951 47.7026L9.69417 47.9619H9.63818C8.35287 47.9619 7.24283 49.4042 7.24283 50.4534C7.24283 50.7467 7.42297 50.9159 7.70535 50.9159C8.03763 50.9159 8.36504 50.4424 8.73141 49.9349L8.71437 50.115C8.66933 50.6335 8.82756 50.9159 9.09777 50.9159C9.41301 50.9159 9.70026 50.4254 9.92056 49.9409H9.7745C9.62236 50.1612 9.48117 50.2903 9.36919 50.2903C9.25113 50.2903 9.16593 50.076 9.36919 49.6196L10.1956 47.7196ZM4.45799 51.4624C4.45799 51.1642 4.74524 50.978 5.15664 50.8136C5.29174 50.8818 5.495 50.9548 5.76521 51.0449C6.19365 51.1861 6.35675 51.2421 6.35675 51.3723C6.35675 51.6486 5.88936 51.8567 5.25158 51.8567C4.71725 51.8567 4.45799 51.7448 4.45799 51.4624ZM5.62402 49.6415C5.4378 49.6415 5.36477 49.4833 5.36477 49.3032C5.36477 48.8017 5.63498 48.0629 6.05854 48.0629C6.24477 48.0629 6.3178 48.2211 6.3178 48.4013C6.3178 48.9039 6.04759 49.6415 5.62402 49.6415ZM6.84726 51.1861C6.84726 50.8258 6.52593 50.6956 6.00134 50.5373C5.55099 50.4022 5.34773 50.3621 5.34773 50.216C5.34773 50.098 5.44389 49.9568 5.63498 49.8557C6.37379 49.8168 6.85213 49.151 6.85213 48.5936C6.85213 48.4755 6.829 48.3733 6.79005 48.2832H7.41567L7.51182 47.9619H6.51985C6.40178 47.8888 6.26059 47.8487 6.1194 47.8487C5.33556 47.8487 4.82922 48.5364 4.82922 49.0938C4.82922 49.5162 5.09943 49.7815 5.42684 49.8436C5.06048 50.0067 4.85722 50.199 4.85722 50.4242C4.85722 50.5544 4.90225 50.6445 5.00936 50.7284C4.16344 50.9767 3.83116 51.2579 3.83116 51.6583C3.83116 52.0478 4.34358 52.2109 4.95337 52.2109C5.98552 52.2121 6.84726 51.6535 6.84726 51.1861ZM2.90735 48.7737C3.27979 48.7737 3.28466 48.9258 3.22867 49.3312H3.44289L3.93949 47.9728H3.72527C3.53905 48.2941 3.39299 48.5303 2.98646 48.5303H2.16975L2.58115 47.3971C2.71625 47.0198 2.79537 46.9468 3.30292 46.9468H3.66319C4.18779 46.9468 4.24986 47.0879 4.24986 47.6113H4.45799L4.63326 46.6875H1.52101L1.46502 46.8628C2.06751 46.9869 2.12472 47.0429 1.84234 47.8207L1.1656 49.6695C0.883226 50.4412 0.765162 50.5033 0.0726044 50.6274L0.0214844 50.8027H3.48184L4.10137 49.8217H3.86524C3.47089 50.1941 2.97429 50.5483 2.28173 50.5483C1.36278 50.5483 1.44798 50.5094 1.75227 49.6695L2.07968 48.7737H2.90735V48.7737ZM3.35891 46.4124L4.45799 45.6566V45.5385H3.79343L3.18486 46.4124H3.35891Z" fill="black"/>
<path d="M17.13 41.2211C17.3381 41.2211 17.5195 41.3794 17.4233 41.7786L16.4545 42.0037C16.6237 41.5534 16.9048 41.2211 17.13 41.2211ZM17.6655 42.7827H17.4744C17.2322 43.07 16.973 43.2951 16.7137 43.2951C16.4484 43.2951 16.3133 43.1369 16.3133 42.7827C16.3133 42.6367 16.3303 42.4894 16.3583 42.3543L17.9199 41.8419C18.2242 41.1201 17.8578 40.8049 17.4294 40.8049C16.6906 40.8049 15.8508 42.039 15.8508 43.1211C15.8508 43.6055 16.082 43.8709 16.4423 43.8709C16.8659 43.8696 17.3053 43.4582 17.6655 42.7827ZM17.3564 40.5164L18.4555 39.4903V39.3723H17.8639L17.1872 40.5164H17.3564V40.5164ZM14.1261 41.2382H14.5375L13.7147 43.4875C13.6416 43.6785 13.7427 43.8709 13.9398 43.8709C14.4072 43.8709 15.1631 43.4083 15.4284 42.7779H15.2824C15.0742 42.9982 14.6738 43.2903 14.3293 43.3524L15.0852 41.2382H15.8569L15.953 40.9168H15.2032L15.4905 40.105H15.1923L14.6567 40.9168L14.1273 41.0069V41.2382H14.1261ZM13.7208 41.4913C13.8279 41.125 13.7719 40.8036 13.4895 40.8036C13.1572 40.8036 13.072 41.0568 12.7336 41.7847V41.3672C12.7336 41.069 12.6375 40.8036 12.3673 40.8036C12.052 40.8036 11.7648 41.2942 11.5445 41.7786H11.6905C11.8427 41.5583 11.9839 41.4293 12.0959 41.4293C12.231 41.4293 12.304 41.6374 12.0959 42.0999L11.4873 43.4522C11.3741 43.7053 11.4934 43.8696 11.7405 43.8696C11.8926 43.8696 11.9608 43.8307 12.0228 43.6664L12.6205 42.0829C12.7896 41.8747 12.9418 41.6934 13.1329 41.4913H13.7208ZM10.2604 41.2211C10.4685 41.2211 10.6499 41.3794 10.5537 41.7786L9.58488 42.0037C9.75285 41.5534 10.0352 41.2211 10.2604 41.2211ZM10.7959 42.7827H10.6049C10.3626 43.07 10.1034 43.2951 9.84413 43.2951C9.5788 43.2951 9.44369 43.1369 9.44369 42.7827C9.44369 42.6367 9.46073 42.4894 9.48873 42.3543L11.0503 41.8419C11.3546 41.1201 10.9883 40.8049 10.5598 40.8049C9.82101 40.8049 8.98118 42.039 8.98118 43.1211C8.98118 43.6055 9.21243 43.8709 9.57271 43.8709C9.99506 43.8696 10.4345 43.4582 10.7959 42.7827ZM6.96801 43.4132C6.81587 43.4132 6.59556 43.272 6.59556 43.1479C6.59556 43.1089 6.66372 42.9337 6.74771 42.7133L7.00087 42.0427C7.27108 41.7214 7.68248 41.3781 7.91374 41.3781C8.05492 41.3781 8.16203 41.4682 8.16203 41.6763C8.16325 42.2922 7.58876 43.4132 6.96801 43.4132ZM8.74383 41.4293C8.74383 40.9728 8.57465 40.8036 8.25941 40.8036C7.86505 40.8036 7.4926 41.2211 7.12137 41.7275L8.06223 39.253L8.01111 39.1909L7.02522 39.3041V39.4222L7.21631 39.5682C7.39158 39.7033 7.33437 39.8445 7.17736 40.2498L6.16226 42.8655C6.08923 43.0566 5.99916 43.283 5.99916 43.345C5.99916 43.6153 6.36552 43.8696 6.6978 43.8696C7.46461 43.8696 8.74383 42.4894 8.74383 41.4293ZM5.67783 41.1311C5.73991 40.9229 5.59872 40.8036 5.49161 40.8036C5.04126 40.8036 4.50572 41.209 4.2915 41.7786H4.43756C4.58361 41.5704 4.83191 41.3392 5.06317 41.299L4.20143 43.5422C4.12232 43.7504 4.28054 43.8696 4.38765 43.8696C4.81609 43.8696 5.31756 43.4582 5.53177 42.8947H5.3845C5.23844 43.1028 4.99014 43.3341 4.75888 43.3743L5.67783 41.1311ZM5.83606 40.004C6.03933 40.004 6.20851 39.8409 6.20851 39.6315C6.20851 39.4283 6.03933 39.2591 5.83606 39.2591C5.62793 39.2591 5.46361 39.4283 5.46361 39.6315C5.46361 39.8409 5.62671 40.004 5.83606 40.004ZM3.56486 39.6425H1.51275L1.45676 39.8177C2.05925 39.9419 2.11645 39.9979 1.83407 40.7756L1.16951 42.6245C0.887133 43.3962 0.769069 43.4582 0.0765107 43.5824L0.0253906 43.7577H3.14738L3.82411 42.5515H3.58799C3.20458 42.9738 2.75424 43.5045 2.06046 43.5045C1.53587 43.5045 1.4738 43.4144 1.75618 42.6257L2.42074 40.7769C2.69703 40.0052 2.82118 39.9431 3.51374 39.819L3.56486 39.6425Z" fill="black"/>
<path d="M11.6055 9.0069C11.7151 8.89736 11.8258 8.7793 11.9354 8.66123H11.9329C12.1374 8.42876 12.3382 8.20845 12.5768 8.00519C12.6486 7.94068 12.7192 7.88347 12.7862 7.83722C12.8056 7.81775 12.8056 7.7788 12.8251 7.76054C12.7289 7.79949 12.6705 7.87617 12.5744 7.91512C12.5549 7.91512 12.5354 7.89565 12.5549 7.87617C12.6231 7.82505 12.6924 7.77271 12.7606 7.72159C12.7569 7.72159 12.7521 7.72159 12.7472 7.72159C12.7277 7.72159 12.7277 7.70212 12.7277 7.68265C12.477 7.6437 12.2835 7.81775 12.1106 7.97233C12.0717 7.9918 12.034 7.95285 12.0145 7.95285C11.7248 8.04901 11.513 8.29974 11.2233 8.41537C11.2233 8.39589 11.2233 8.3959 11.2233 8.37642C11.1077 8.41537 10.9957 8.48475 10.8764 8.51152C10.7024 8.55047 10.549 8.531 10.3945 8.531C10.1608 8.55413 9.92707 8.60646 9.69338 8.65637C9.68608 8.65758 9.67999 8.66002 9.67269 8.66123C9.54732 8.69531 9.42926 8.74278 9.31363 8.80607C9.30876 8.80851 9.30511 8.81094 9.30024 8.81338C9.2905 8.82555 9.28077 8.8365 9.27225 8.84624C9.23086 8.89128 9.19556 8.93388 9.13957 8.96187C9.02151 9.02273 8.92414 9.1274 8.81947 9.2126C8.81216 9.21869 8.79999 9.22112 8.78904 9.22234C8.68558 9.32215 8.58334 9.42195 8.47866 9.51932C8.47136 9.52663 8.44093 9.53028 8.42024 9.52663C8.42024 9.52541 8.42146 9.52541 8.42146 9.52541C8.42511 9.51932 8.42876 9.51324 8.43241 9.50715C8.44823 9.48037 8.46527 9.45238 8.48231 9.4256C8.50057 9.39517 8.52005 9.36596 8.53952 9.33554C8.5663 9.29537 8.59308 9.25642 8.62107 9.21869C8.62837 9.20895 8.62594 9.20043 8.61985 9.19313C8.61377 9.18704 8.60403 9.18339 8.59308 9.18339C8.68923 9.08967 8.80364 9.01056 8.91684 8.94118C8.91684 8.93996 8.91684 8.93874 8.91684 8.93753C8.90345 8.9424 8.88519 8.93144 8.89493 8.91805C8.9071 8.90101 8.91684 8.88276 8.92779 8.86572C8.93023 8.85963 8.93144 8.85476 8.93388 8.84868C8.92901 8.84381 8.92414 8.83894 8.91927 8.83285C8.88762 8.85354 8.85476 8.8718 8.8292 8.89614C8.78295 8.93753 8.74644 9.02273 8.67706 9.02151C8.67219 9.02151 8.6588 9.02029 8.64785 9.01786C8.63933 9.01664 8.63202 9.01421 8.62716 9.01055C8.62837 9.00934 8.62837 9.00812 8.62959 9.00569C8.63081 9.00447 8.63202 9.00204 8.63202 9.00082C8.63324 8.9996 8.63446 8.99717 8.63446 8.99595C8.63689 8.98986 8.64054 8.985 8.6442 8.97891C8.64785 8.97282 8.65028 8.96796 8.65393 8.96187C8.65637 8.957 8.6588 8.95335 8.66124 8.94848C8.6661 8.93996 8.66976 8.93266 8.67462 8.92414C8.67828 8.91805 8.68193 8.91197 8.68436 8.9071C8.69288 8.89249 8.7014 8.8791 8.7087 8.8645C8.71236 8.85719 8.71722 8.85111 8.72087 8.84381C8.72818 8.83163 8.73427 8.82068 8.74157 8.80851C8.75131 8.79269 8.74157 8.7793 8.72696 8.77443C8.76226 8.72818 8.80608 8.68923 8.85963 8.6588H8.85355C8.92779 8.62107 9.00082 8.57603 9.07507 8.53465C9.08602 8.52491 9.09576 8.51639 9.10671 8.50666C8.99717 8.54317 8.89736 8.59307 8.79999 8.65758C8.79999 8.65758 8.77443 8.66854 8.76713 8.67462C8.76713 8.67462 8.74522 8.68314 8.71844 8.65758C8.71601 8.65393 8.71357 8.65028 8.71357 8.64298C8.73305 8.60403 8.79025 8.58455 8.8292 8.54682C8.84868 8.54682 8.86815 8.54682 8.86815 8.5663C9.48525 8.08431 10.3336 8.19994 11.0481 7.9492C11.1065 7.91025 11.1637 7.87252 11.2221 7.83357C11.3183 7.79462 11.3962 7.69847 11.5118 7.64126C11.6664 7.52563 11.782 7.39053 11.8392 7.19822C11.8392 7.17875 11.8197 7.15927 11.8197 7.15927C11.569 7.42948 11.2793 7.64126 10.9714 7.79584C10.5661 8.00762 10.123 7.96989 9.69825 8.0271C9.71772 7.98815 9.75667 7.98815 9.7944 7.98815C9.7944 7.92973 9.83335 7.91147 9.87108 7.87252C9.89056 7.87252 9.91003 7.87252 9.92951 7.87252C9.94898 7.87252 9.94898 7.83357 9.96845 7.83357C10.0074 7.83357 10.0646 7.8141 10.0451 7.8141C9.98671 7.73742 9.87108 7.87252 9.77493 7.8141C9.81388 7.77515 9.7944 7.71794 9.83335 7.69847C9.85283 7.69847 9.89177 7.69847 9.91003 7.69847C9.91003 7.65952 9.94898 7.62179 9.94898 7.62179C10.2387 7.44774 10.5089 7.31263 10.7779 7.15927C10.7194 7.15927 10.6817 7.2177 10.6233 7.17875C10.6622 7.17875 10.6233 7.12032 10.6622 7.12032C10.874 7.0619 11.0481 6.94627 11.2598 6.86959C11.1832 6.86959 11.1247 6.92801 11.0481 6.86959C11.087 6.85012 11.1065 6.81117 11.1637 6.81117C11.1637 6.79169 11.1637 6.77222 11.1637 6.75274C11.1637 6.73327 11.1832 6.73327 11.2026 6.73327C11.1832 6.73327 11.1637 6.71379 11.1637 6.71379C11.1832 6.67485 11.2404 6.69432 11.2793 6.65537C11.2598 6.65537 11.2209 6.65537 11.2209 6.6359C11.2793 6.55922 11.3755 6.53974 11.4716 6.52027C11.4522 6.48132 11.395 6.52027 11.395 6.48132C11.395 6.46184 11.4144 6.46185 11.4339 6.46185C11.4144 6.46185 11.4144 6.46185 11.395 6.46185C11.356 6.44237 11.3755 6.40342 11.3755 6.38516C11.4911 6.25006 11.4911 6.07601 11.5495 5.92265C11.5301 5.92265 11.5106 5.92265 11.5106 5.90317C11.3183 6.11496 11.0091 6.19286 10.7194 6.26954C10.7 6.26954 10.6428 6.26954 10.6233 6.26954C10.5271 6.30848 10.392 6.30848 10.2959 6.25006C10.2192 6.21111 10.1802 6.15391 10.1036 6.09548C9.94898 5.99933 9.7944 5.92143 9.62157 5.86423C9.13958 5.70965 8.63811 5.63297 8.13664 5.65244C8.34843 5.53681 8.58334 5.52707 8.81216 5.46013C9.13957 5.36398 9.44873 5.24835 9.79562 5.26782C9.73719 5.24835 9.66051 5.26782 9.60331 5.26782C9.3331 5.24835 9.06289 5.32624 8.77443 5.38345C8.58212 5.4224 8.40807 5.49908 8.21454 5.53803C8.09891 5.57698 8.04049 5.69261 7.90539 5.67313C7.90539 5.67313 7.90539 5.63418 7.90539 5.61471C8.09769 5.38345 8.33017 5.15219 8.63811 5.13272C8.985 5.0743 9.31363 5.13272 9.66051 5.17167C9.91125 5.19114 10.1425 5.24835 10.3932 5.30677C10.4894 5.30677 10.5089 5.46135 10.5868 5.48082C10.7024 5.51977 10.818 5.48082 10.9337 5.5575C10.9337 5.51855 10.9142 5.48082 10.9337 5.44187C11.0103 5.36519 11.1077 5.46135 11.1844 5.4224C11.339 5.32624 11.0493 5.15219 10.9726 5.01709C10.9726 4.99762 10.9921 4.97814 10.9921 4.97814C11.1467 5.11324 11.2623 5.26782 11.4546 5.36398C11.5507 5.40293 11.782 5.46013 11.7443 5.3445C11.6481 5.13272 11.4546 4.95867 11.3012 4.76636C11.3012 4.74688 11.3012 4.70793 11.3012 4.68968C11.2623 4.68968 11.2623 4.6702 11.2428 4.65073C11.2428 4.63125 11.2428 4.5923 11.2428 4.57405C11.1661 4.5351 11.1844 4.45842 11.1467 4.39999C11.0882 4.30384 11.1272 4.16874 11.0882 4.05311C11.0493 3.93748 11.0298 3.84132 11.0116 3.72569C10.9531 3.39828 10.8764 3.1086 10.8375 2.79944C10.7986 2.43308 11.0493 2.1434 11.2233 1.81599C11.3584 1.58473 11.513 1.35347 11.7637 1.19889C11.8222 0.967633 11.9755 0.774107 12.1301 0.581797C12.2847 0.393139 12.5403 0.278727 12.7253 0.195961C12.9943 0.0754633 13.2377 0 13.2377 0H0V10.207H9.37449C9.74206 9.94289 10.1084 9.81753 10.6208 9.56436C10.8643 9.44873 11.4181 9.19434 11.6055 9.0069ZM8.63933 7.62544C8.60038 7.62544 8.5237 7.64491 8.54317 7.60597C8.56265 7.50981 8.69775 7.50981 8.77443 7.47086C8.81338 7.45139 8.87058 7.41244 8.90953 7.43191C8.94848 7.49034 9.00569 7.47086 9.04464 7.50859C8.92779 7.62544 8.77443 7.56702 8.63933 7.62544ZM5.68774 7.20065C5.68774 7.20065 5.66827 7.18118 5.66827 7.16171C5.919 6.83429 6.11131 6.52514 6.28536 6.17825C6.53609 6.04315 6.74422 5.84719 6.9414 5.63784C7.26882 5.29095 7.61692 4.98179 8.02101 4.78948C8.17559 4.73106 8.3679 4.75053 8.52248 4.80896C8.46406 4.88564 8.3679 4.86738 8.29122 4.92459C8.27175 4.92459 8.25227 4.92459 8.2328 4.90511C8.25227 4.88564 8.25227 4.86616 8.25227 4.84669C8.05996 5.05847 7.78976 5.15584 7.63518 5.40658C7.51955 5.59889 7.44287 5.85084 7.19214 5.90804C7.11546 5.92752 7.21161 5.84962 7.17266 5.86909C6.57504 6.23545 6.15026 6.67971 5.68774 7.20065ZM7.28829 5.92752C7.26882 5.96647 7.24812 5.97012 7.22987 6.0042C7.21039 6.04315 7.19092 6.06262 7.15319 6.08088C7.13371 6.08088 7.11424 6.08088 7.11424 6.0614C7.13371 5.98472 7.19092 5.90683 7.26882 5.88735C7.28829 5.88857 7.28829 5.90804 7.28829 5.92752ZM8.18411 8.81703C8.17559 8.83772 8.15612 8.85598 8.13664 8.87302C8.16099 8.87789 8.17803 8.88884 8.1622 8.90345C8.11717 8.94483 8.07457 8.98621 8.01615 9.00569C8.01249 9.0069 8.00032 9.00934 7.98693 9.00934C7.96381 9.03246 7.93947 9.05437 7.91512 9.07628C7.892 9.09697 7.78611 9.08237 7.81897 9.05316C7.86765 9.00934 7.91269 8.96309 7.96137 8.91805C7.98815 8.89371 8.01736 8.86937 8.04171 8.84137C8.0551 8.82555 8.06605 8.81094 8.08309 8.79877C8.0977 8.78904 8.19994 8.7793 8.18411 8.81703ZM7.83844 8.65758C7.83722 8.6588 7.83479 8.66002 7.83357 8.66123C7.76176 8.71235 7.68995 8.76348 7.61327 8.80851C7.5305 8.85598 7.44409 8.89249 7.35889 8.93388C7.35767 8.93266 7.35767 8.93022 7.35645 8.92901C7.35037 8.92049 7.33698 8.9144 7.32359 8.9217C7.25056 8.96065 7.18849 9.01299 7.12885 9.06898C7.12033 9.0775 7.11059 9.08602 7.10207 9.09454L7.10085 9.09576L7.09963 9.09697C7.0899 9.10549 7.08138 9.11523 7.07164 9.12375C7.07042 9.12497 7.0692 9.12618 7.06799 9.1274L7.06677 9.12862C7.05338 9.14201 7.03999 9.15661 7.02539 9.17365C7.01565 9.18461 7.012 9.19191 6.99983 9.20043C6.98765 9.20895 6.95479 9.20773 6.95723 9.18582C6.95723 9.18461 6.95723 9.18339 6.95723 9.18217C6.94627 9.18826 6.9341 9.19434 6.92315 9.19921C6.91219 9.20408 6.90245 9.21017 6.89272 9.21625C6.88907 9.21504 6.8842 9.21382 6.87933 9.21382C6.87446 9.21382 6.86959 9.21504 6.86594 9.21869C6.84281 9.23695 6.81847 9.25642 6.79656 9.27711C6.7564 9.31363 6.71866 9.35379 6.68458 9.39639C6.68337 9.39639 6.68337 9.39761 6.68337 9.39761C6.68215 9.39883 6.68093 9.40126 6.67972 9.40248C6.67728 9.40491 6.67606 9.40735 6.67363 9.40978C6.6712 9.41222 6.66998 9.41465 6.66754 9.4183C6.66754 9.41952 6.66633 9.41952 6.66511 9.42074C6.66024 9.42682 6.65659 9.43412 6.65172 9.44021C6.65172 9.44021 6.65172 9.44143 6.6505 9.44143C6.64685 9.44508 6.64198 9.44751 6.63468 9.44873C6.63225 9.44508 6.62981 9.44143 6.62738 9.43778C6.62494 9.43534 6.62373 9.43169 6.62251 9.42804C6.61642 9.4183 6.61156 9.40735 6.60547 9.39761V9.39639C6.60425 9.39274 6.60182 9.39031 6.6006 9.38666C6.62129 9.36475 6.64198 9.3404 6.66146 9.31728C6.66268 9.31606 6.66389 9.31363 6.66511 9.31241C6.67241 9.30389 6.6785 9.29537 6.68458 9.28807C6.69554 9.27468 6.70649 9.26007 6.71745 9.24668C6.7211 9.24181 6.72475 9.23695 6.72962 9.23086C6.75031 9.20287 6.771 9.17609 6.79048 9.14931C6.79048 9.14809 6.79169 9.14809 6.79169 9.14688C6.79413 9.14323 6.79778 9.13836 6.80021 9.1347C6.80995 9.12132 6.81847 9.10671 6.82699 9.09332C6.83429 9.08115 6.8416 9.06776 6.84768 9.05437C6.84768 9.05316 6.8489 9.05194 6.8489 9.05194C6.85012 9.05072 6.85012 9.04951 6.85134 9.04829C6.85255 9.04585 6.85377 9.04342 6.85499 9.04098C6.86229 9.02638 6.86837 9.01177 6.87324 8.99595C6.87324 8.99473 6.87446 8.9923 6.87446 8.99108C6.87568 8.98743 6.87689 8.98256 6.87933 8.97891C6.88176 8.97161 6.88298 8.9643 6.88542 8.95822C6.88542 8.957 6.88663 8.95457 6.88663 8.95335C6.88907 8.94361 6.8915 8.93509 6.89393 8.92535C6.89515 8.92049 6.89393 8.91562 6.8915 8.91197C6.91219 8.87545 6.93775 8.84137 6.96818 8.80729C6.96575 8.80851 6.9621 8.81094 6.95966 8.81216C6.93167 8.83042 6.91341 8.85476 6.88785 8.87423C6.86716 8.89006 6.82821 8.8645 6.85255 8.84502C6.86959 8.83285 6.88176 8.81825 6.89637 8.80486C6.89759 8.80364 6.89759 8.80242 6.8988 8.80121C6.93045 8.76956 6.96088 8.72939 6.99739 8.70383C7.0193 8.68801 7.03877 8.67462 7.05703 8.6588C7.05947 8.65636 7.06312 8.65393 7.06555 8.6515C7.07894 8.63324 7.09355 8.61742 7.10815 8.60281C7.10937 8.60159 7.10937 8.60159 7.11059 8.60038C7.29559 8.42267 7.60597 8.42998 7.8494 8.31678C7.94555 8.27783 8.06118 8.33625 8.15855 8.31678C8.21698 8.31678 8.27418 8.31678 8.33261 8.35573C8.15734 8.45188 7.99667 8.55899 7.83844 8.65758ZM8.23402 7.31628C8.21454 7.29681 8.29244 7.31628 8.3107 7.27734C8.25227 7.27734 8.21454 7.27734 8.15612 7.27734C8.13664 7.27734 8.13664 7.25786 8.13664 7.23839C8.04049 7.25786 7.92486 7.29681 7.82749 7.31507C7.69238 7.35402 7.57675 7.45017 7.42218 7.48912C7.21039 7.5658 7.03634 7.73985 6.80508 7.81653C6.78561 7.81653 6.78561 7.79706 6.78561 7.77758C6.80508 7.71916 6.88176 7.7009 6.92071 7.64248C6.92071 7.62301 6.92071 7.60353 6.90124 7.60353C7.05581 7.39175 7.2676 7.27612 7.46113 7.10207C7.46113 7.08259 7.46113 7.06312 7.46113 7.04364C7.51955 6.96696 7.6157 6.92801 7.65344 6.83186C7.67291 6.77344 7.74959 6.69676 7.84575 6.65781C7.82627 6.63833 7.78732 6.63833 7.78732 6.59938C7.71064 6.59938 7.63274 6.63833 7.55606 6.57991C7.59258 6.5434 7.63274 6.52392 7.67656 6.51175C7.65952 6.5081 7.64492 6.49958 7.63274 6.48375C7.61327 6.4448 7.67048 6.40221 7.7289 6.3876C7.80558 6.36813 7.90295 6.36812 7.96016 6.31092C7.82505 6.29144 7.67048 6.34987 7.53537 6.27197C7.63153 6.02124 7.7861 5.80945 8.01736 5.69382C8.03684 5.69382 8.07579 5.69382 8.07579 5.7133C8.07579 5.80945 8.01736 5.88735 7.92121 5.90561C8.07579 5.94456 8.23036 5.94456 8.38373 6.02124C8.36425 6.06019 8.3253 6.04071 8.30704 6.04071C8.4032 6.09913 8.51883 6.06019 8.6162 6.13687C8.55778 6.19529 8.50057 6.13687 8.44215 6.13687C9.03977 6.31092 9.67634 6.44602 10.1778 6.83064C9.75302 7.04243 9.30998 7.1398 8.84746 7.23595C8.78904 7.23595 8.7513 7.23595 8.69288 7.21648C8.69288 7.23595 8.69288 7.2749 8.67341 7.2749C8.59673 7.2749 8.5383 7.2749 8.4811 7.31385C8.40807 7.35523 8.29122 7.37349 8.23402 7.31628Z" fill="#000091"/>
<path d="M28.0712 0.00231934H17.0913C17.0913 0.00231934 17.112 0.00597097 17.196 0.0510055C17.2848 0.0984743 17.4005 0.160549 17.4735 0.19828C17.6147 0.272527 17.7522 0.36503 17.8411 0.507436C17.88 0.56586 17.9372 0.681489 17.8995 0.758169C17.8606 0.854324 17.8411 1.0089 17.7449 1.04785C17.6293 1.10627 17.4747 1.10627 17.3396 1.0868C17.2629 1.0868 17.185 1.06733 17.1084 1.04785C17.398 1.16348 17.6682 1.29858 17.8606 1.56879C17.88 1.60774 17.9567 1.62721 18.0346 1.62721C18.0541 1.62721 18.0541 1.66616 18.0541 1.68564C18.0151 1.72459 17.9774 1.74406 17.9957 1.80127C18.0151 1.80127 18.0346 1.80127 18.0541 1.80127C18.1502 1.76232 18.1308 1.57001 18.2659 1.62721C18.362 1.68564 18.401 1.81952 18.3425 1.9169C18.2659 1.99358 18.188 2.052 18.1113 2.1092C18.0918 2.14815 18.0918 2.20536 18.1113 2.24431C18.1697 2.32099 18.188 2.39889 18.2074 2.47557C18.2659 2.61067 18.2841 2.76525 18.3425 2.90035C18.4192 3.19003 18.4971 3.4785 18.4777 3.76818C18.4777 3.92276 18.401 4.05786 18.4582 4.21122C18.4971 4.3658 18.5933 4.48143 18.67 4.61653C18.7466 4.73216 18.8245 4.80884 18.8817 4.92569C18.9974 5.118 19.2092 5.31152 19.113 5.54278C19.0546 5.67789 18.8428 5.65841 18.7077 5.73509C18.5921 5.83125 18.6882 5.98582 18.7466 6.08198C18.8428 6.25603 18.631 6.37166 18.4959 6.42887C18.5349 6.48729 18.6115 6.46782 18.631 6.50555C18.6505 6.6017 18.7466 6.66013 18.6894 6.75628C18.6128 6.87191 18.3803 6.93033 18.4971 7.10317C18.5738 7.23827 18.5239 7.38798 18.4777 7.52795C18.4192 7.70201 18.2659 7.77869 18.1308 7.81764C18.0151 7.85658 17.88 7.85658 17.7644 7.83711C17.7255 7.81763 17.6877 7.79816 17.6488 7.79816C17.3214 7.75921 16.9927 7.66306 16.6653 7.66306C16.5692 7.68253 16.473 7.70201 16.3951 7.73974C16.3075 7.80425 16.2308 7.87362 16.1614 7.94665C16.1602 7.94787 16.1602 7.94787 16.159 7.94909C16.1444 7.96491 16.131 7.97952 16.1164 7.99534C16.1079 8.00508 16.0993 8.01481 16.092 8.02455C16.086 8.03064 16.0811 8.03794 16.0762 8.04403C16.0202 8.11462 15.9691 8.18886 15.9241 8.26676C15.9216 8.27163 15.918 8.2765 15.9156 8.28137C15.9107 8.28989 15.9058 8.29963 15.9009 8.30815C15.8377 8.42499 15.7902 8.54549 15.7549 8.66234C15.6234 9.10416 15.6806 9.48269 15.7731 9.5752C15.7987 9.60076 16.4097 9.78942 16.8357 9.97929C17.0353 10.0681 17.1753 10.1363 17.2909 10.2093H28.0737V0.00231934H28.0712Z" fill="#E1000F"/>
<path d="M17.7437 3.72673C17.8203 3.7462 17.936 3.7462 17.936 3.78515C17.897 3.93973 17.6658 3.97746 17.5501 4.13204H17.4917C17.4333 4.17099 17.4528 4.26714 17.3955 4.26714C17.3371 4.24767 17.2799 4.26714 17.2215 4.28662C17.2982 4.3633 17.3955 4.42172 17.5112 4.40225C17.5306 4.40225 17.5696 4.4412 17.5696 4.47893C17.5696 4.47893 17.5891 4.47893 17.6085 4.45945C17.628 4.45945 17.6475 4.45945 17.6475 4.47893V4.55561C17.5891 4.63229 17.4929 4.59456 17.4162 4.61403C17.5708 4.65298 17.7254 4.65298 17.8593 4.61403C17.9749 4.57508 17.8593 4.38277 17.936 4.28662C17.897 4.28662 17.936 4.22819 17.897 4.22819C17.936 4.18925 17.9737 4.13204 18.0126 4.11257C18.0516 4.11257 18.1088 4.09309 18.1283 4.05414C18.1283 4.01519 18.0516 3.99694 18.0698 3.95799C18.1855 3.88131 18.2816 3.76568 18.2439 3.64883C18.2244 3.59041 18.0698 3.59041 17.9737 3.55268C17.8775 3.51373 17.7619 3.55268 17.6463 3.57215C17.5501 3.57215 17.4528 3.63057 17.3566 3.64883C17.2215 3.68778 17.1059 3.76446 16.9902 3.84114C17.1253 3.78272 17.2604 3.76446 17.415 3.72551C17.5319 3.72673 17.6305 3.69752 17.7437 3.72673Z" fill="black"/>
</svg>	